STARTFONT 2.1
FONT -FontForge-Courgette-Book-R-Normal--28-280-72-72-P-145-ISO10646-1
SIZE 28 72 72
FONTBOUNDINGBOX 36 35 -5 -8
COMMENT "Generated by fontforge, http://fontforge.sourceforge.net"
COMMENT "Copyright (c) 2012, Sorkin Type Co (www.sorkintype.com) with Reserved Font Name "Courgette"."
STARTPROPERTIES 40
FOUNDRY "FontForge"
FAMILY_NAME "Courgette"
WEIGHT_NAME "Book"
SLANT "R"
SETWIDTH_NAME "Normal"
ADD_STYLE_NAME ""
PIXEL_SIZE 28
POINT_SIZE 280
RESOLUTION_X 72
RESOLUTION_Y 72
SPACING "P"
AVERAGE_WIDTH 145
CHARSET_REGISTRY "ISO10646"
CHARSET_ENCODING "1"
FONTNAME_REGISTRY ""
CHARSET_COLLECTIONS "ISO8859-2 ISO8859-9 ISO8859-4 ISO10646-1"
FONT_NAME "Courgette-Regular"
FACE_NAME "Courgette Regular"
COPYRIGHT "Copyright (c) 2012, Sorkin Type Co (www.sorkintype.com) with Reserved Font Name "Courgette"."
FONT_VERSION "1.002"
FONT_ASCENT 22
FONT_DESCENT 6
UNDERLINE_POSITION -3
UNDERLINE_THICKNESS 2
X_HEIGHT 13
CAP_HEIGHT 20
DEFAULT_CHAR 1
RAW_ASCENT 799
RAW_DESCENT 200
NORM_SPACE 9
RELATIVE_WEIGHT 40
RELATIVE_SETWIDTH 50
SUPERSCRIPT_X 0
SUPERSCRIPT_Y 13
SUPERSCRIPT_SIZE 18
SUBSCRIPT_X 0
SUBSCRIPT_Y 3
SUBSCRIPT_SIZE 18
AVG_LOWERCASE_WIDTH 139
AVG_UPPERCASE_WIDTH 163
ENDPROPERTIES
CHARS 407
STARTCHAR .null.dup1
ENCODING 0
SWIDTH 0 0
DWIDTH 0 0
BBX 1 1 0 0
BITMAP
00
ENDCHAR
STARTCHAR uni0001
ENCODING 1
SWIDTH 0 0
DWIDTH 0 0
BBX 1 1 0 0
BITMAP
00
ENDCHAR
STARTCHAR uni0002
ENCODING 2
SWIDTH 0 0
DWIDTH 0 0
BBX 1 1 0 0
BITMAP
00
ENDCHAR
STARTCHAR uni0003
ENCODING 3
SWIDTH 0 0
DWIDTH 0 0
BBX 1 1 0 0
BITMAP
00
ENDCHAR
STARTCHAR uni0004
ENCODING 4
SWIDTH 0 0
DWIDTH 0 0
BBX 1 1 0 0
BITMAP
00
ENDCHAR
STARTCHAR uni0005
ENCODING 5
SWIDTH 0 0
DWIDTH 0 0
BBX 1 1 0 0
BITMAP
00
ENDCHAR
STARTCHAR uni0006
ENCODING 6
SWIDTH 0 0
DWIDTH 0 0
BBX 1 1 0 0
BITMAP
00
ENDCHAR
STARTCHAR uni0007
ENCODING 7
SWIDTH 0 0
DWIDTH 0 0
BBX 1 1 0 0
BITMAP
00
ENDCHAR
STARTCHAR uni0008
ENCODING 8
SWIDTH 0 0
DWIDTH 0 0
BBX 1 1 0 0
BITMAP
00
ENDCHAR
STARTCHAR uni0009
ENCODING 9
SWIDTH 0 0
DWIDTH 0 0
BBX 1 1 0 0
BITMAP
00
ENDCHAR
STARTCHAR nonmarkingreturn
ENCODING 13
SWIDTH 0 0
DWIDTH 0 0
BBX 1 1 0 0
BITMAP
00
ENDCHAR
STARTCHAR uni0015
ENCODING 21
SWIDTH 0 0
DWIDTH 0 0
BBX 1 1 0 0
BITMAP
00
ENDCHAR
STARTCHAR uni0016
ENCODING 22
SWIDTH 0 0
DWIDTH 0 0
BBX 1 1 0 0
BITMAP
00
ENDCHAR
STARTCHAR uni0017
ENCODING 23
SWIDTH 0 0
DWIDTH 0 0
BBX 1 1 0 0
BITMAP
00
ENDCHAR
STARTCHAR uni0018
ENCODING 24
SWIDTH 0 0
DWIDTH 0 0
BBX 1 1 0 0
BITMAP
00
ENDCHAR
STARTCHAR uni0019
ENCODING 25
SWIDTH 0 0
DWIDTH 0 0
BBX 1 1 0 0
BITMAP
00
ENDCHAR
STARTCHAR space
ENCODING 32
SWIDTH 307 0
DWIDTH 9 0
BBX 1 1 0 0
BITMAP
00
ENDCHAR
STARTCHAR exclam
ENCODING 33
SWIDTH 417 0
DWIDTH 12 0
BBX 11 21 2 0
BITMAP
00E0
01E0
03C0
0780
0780
0F00
0F00
0E00
1E00
1C00
1C00
1800
1800
3800
3000
1000
0000
7000
F800
F800
7000
ENDCHAR
STARTCHAR quotedbl
ENCODING 34
SWIDTH 437 0
DWIDTH 12 0
BBX 10 7 4 16
BITMAP
79C0
73C0
F380
E380
C300
C300
8200
ENDCHAR
STARTCHAR numbersign
ENCODING 35
SWIDTH 725 0
DWIDTH 20 0
BBX 19 21 1 0
BITMAP
0031C0
007180
007380
006380
00E300
00C700
00C600
1FFFE0
3FFFC0
018C00
038C00
031C00
031C00
7FFF80
FFFF80
063000
0E3000
0C3000
0C6000
186000
184000
ENDCHAR
STARTCHAR dollar
ENCODING 36
SWIDTH 545 0
DWIDTH 15 0
BBX 14 29 2 -4
BITMAP
000C
001C
0018
0038
01F0
07F8
0E1C
1C0C
1C0C
381C
381C
383C
3C78
3C70
1E00
1E00
0F00
0F00
0780
4380
C380
C380
E300
FF00
7C00
3000
6000
6000
4000
ENDCHAR
STARTCHAR percent
ENCODING 37
SWIDTH 876 0
DWIDTH 25 0
BBX 21 21 2 0
BITMAP
0F0070
3F80E0
3981C0
71C1C0
E1C380
E38700
E38E00
E71C00
7E1800
3C3800
007000
00E1E0
01C7F0
038F30
030E38
071C30
0E1C70
1C1C70
381CE0
700FC0
600780
ENDCHAR
STARTCHAR ampersand
ENCODING 38
SWIDTH 563 0
DWIDTH 16 0
BBX 15 21 1 0
BITMAP
00F8
07FC
0F06
1E06
1C0E
381E
383C
3878
3830
3800
1F80
1F80
3C00
7882
F1FE
E0FC
E060
E0E0
E0C0
7F80
3F00
ENDCHAR
STARTCHAR quotesingle
ENCODING 39
SWIDTH 231 0
DWIDTH 7 0
BBX 5 7 4 16
BITMAP
78
70
F0
E0
C0
C0
80
ENDCHAR
STARTCHAR parenleft
ENCODING 40
SWIDTH 478 0
DWIDTH 13 0
BBX 14 32 3 -7
BITMAP
0004
0018
0070
00E0
01C0
0380
0700
0700
0E00
1C00
1C00
3800
3800
3800
7000
7000
7000
E000
E000
E000
E000
E000
E000
E000
E000
6000
7000
7000
3000
3800
1C00
0C00
ENDCHAR
STARTCHAR parenright
ENCODING 41
SWIDTH 478 0
DWIDTH 13 0
BBX 14 32 -3 -7
BITMAP
0080
00E0
0070
0070
0038
0038
0018
001C
001C
001C
001C
001C
001C
001C
001C
001C
0038
0038
0038
0070
0070
0070
00E0
01C0
01C0
0380
0700
0600
0E00
1800
7000
E000
ENDCHAR
STARTCHAR asterisk
ENCODING 42
SWIDTH 518 0
DWIDTH 15 0
BBX 10 11 4 10
BITMAP
0700
0E00
4E00
CC00
EBC0
7FC0
3C00
7C00
6600
C700
8300
ENDCHAR
STARTCHAR plus
ENCODING 43
SWIDTH 617 0
DWIDTH 17 0
BBX 14 14 2 3
BITMAP
0300
0300
0300
0300
0300
0300
7FF8
FFFC
0300
0300
0300
0300
0300
0200
ENDCHAR
STARTCHAR comma
ENCODING 44
SWIDTH 312 0
DWIDTH 9 0
BBX 5 8 0 -4
BITMAP
38
78
38
38
38
30
60
C0
ENDCHAR
STARTCHAR hyphen
ENCODING 45
SWIDTH 452 0
DWIDTH 13 0
BBX 9 2 2 7
BITMAP
7F80
FF00
ENDCHAR
STARTCHAR period
ENCODING 46
SWIDTH 270 0
DWIDTH 8 0
BBX 4 4 1 0
BITMAP
F0
F0
F0
E0
ENDCHAR
STARTCHAR slash
ENCODING 47
SWIDTH 405 0
DWIDTH 11 0
BBX 18 30 -2 -5
BITMAP
000040
0000C0
0001C0
000380
000300
000700
000600
000E00
001C00
001C00
003800
003000
007000
006000
00E000
00C000
01C000
038000
030000
070000
060000
0E0000
0C0000
1C0000
380000
380000
700000
600000
E00000
C00000
ENDCHAR
STARTCHAR zero
ENCODING 48
SWIDTH 621 0
DWIDTH 17 0
BBX 15 21 2 0
BITMAP
0078
01FE
0386
0706
0E06
1C06
1C0E
380E
380E
700E
701E
F01C
E03C
E038
E078
E070
E0F0
E1E0
E3C0
7F80
3E00
ENDCHAR
STARTCHAR one
ENCODING 49
SWIDTH 405 0
DWIDTH 11 0
BBX 9 21 2 0
BITMAP
0380
0780
0F80
3F80
7B80
0380
0700
0700
0700
0E00
0E00
0C00
1C00
1C00
3800
3800
3000
7000
6000
C000
8000
ENDCHAR
STARTCHAR two
ENCODING 50
SWIDTH 524 0
DWIDTH 15 0
BBX 15 21 0 0
BITMAP
00F8
03FC
070E
0E0E
0E0E
0E0E
0F1E
0F1C
003C
0078
00F0
01E0
03C0
0780
0F00
1C00
3800
3010
7FF8
FFF0
41E0
ENDCHAR
STARTCHAR three
ENCODING 51
SWIDTH 537 0
DWIDTH 15 0
BBX 14 21 1 0
BITMAP
01F0
07F8
0E1C
0E0C
1C0C
1C1C
1E1C
1E3C
0878
00F0
03E0
07C0
07C0
00E0
00E0
70E0
F0E0
E1C0
E3C0
7F80
3E00
ENDCHAR
STARTCHAR four
ENCODING 52
SWIDTH 529 0
DWIDTH 15 0
BBX 13 21 2 0
BITMAP
0C00
0E00
0E00
0E00
1E00
1C40
3C70
3870
7870
7070
E0E0
E0E0
C1F0
FFF8
3B80
0380
0300
0700
0600
0C00
0800
ENDCHAR
STARTCHAR five
ENCODING 53
SWIDTH 540 0
DWIDTH 15 0
BBX 16 21 1 0
BITMAP
03C3
03FF
077E
0700
0600
0E00
0C00
1FE0
1FF0
3870
1038
0038
0078
0078
2070
F070
E0E0
E1E0
E3C0
7F80
3E00
ENDCHAR
STARTCHAR six
ENCODING 54
SWIDTH 554 0
DWIDTH 16 0
BBX 14 21 2 0
BITMAP
00F8
03FC
070C
0E0C
1C3C
1C38
3838
3800
7080
77E0
FC70
F870
F070
F070
E070
E070
E0E0
E1E0
61C0
7F80
3E00
ENDCHAR
STARTCHAR seven
ENCODING 55
SWIDTH 473 0
DWIDTH 13 0
BBX 12 21 3 0
BITMAP
40F0
7FF0
7FB0
3C70
00E0
01C0
0380
0380
0700
0E00
0E00
1C00
3800
3800
7000
7000
7000
E000
E000
E000
6000
ENDCHAR
STARTCHAR eight
ENCODING 56
SWIDTH 524 0
DWIDTH 15 0
BBX 14 21 1 0
BITMAP
01F0
07F8
061C
0C1C
0C1C
1C1C
1C1C
1E1C
0E38
0F70
0FE0
0780
0FC0
39C0
71C0
60E0
E0E0
E0C0
70C0
7F80
3E00
ENDCHAR
STARTCHAR nine
ENCODING 57
SWIDTH 554 0
DWIDTH 16 0
BBX 14 21 1 0
BITMAP
00F0
03F8
071C
0E0C
1C0C
1C1C
381C
381C
383C
383C
387C
1FF8
0FB8
0038
0070
0070
70E0
E1C0
E380
7F00
3C00
ENDCHAR
STARTCHAR colon
ENCODING 58
SWIDTH 312 0
DWIDTH 9 0
BBX 7 13 1 0
BITMAP
1C
3E
3C
1C
00
00
00
00
00
70
F0
F0
F0
ENDCHAR
STARTCHAR semicolon
ENCODING 59
SWIDTH 312 0
DWIDTH 9 0
BBX 8 17 0 -4
BITMAP
0E
1F
1E
0E
00
00
00
00
00
38
78
38
38
38
30
60
C0
ENDCHAR
STARTCHAR less
ENCODING 60
SWIDTH 637 0
DWIDTH 18 0
BBX 14 15 2 1
BITMAP
000C
003C
0070
01E0
0780
1E00
7C00
F000
7800
3E00
0F00
03C0
00F0
003C
001C
ENDCHAR
STARTCHAR equal
ENCODING 61
SWIDTH 617 0
DWIDTH 17 0
BBX 14 7 2 7
BITMAP
7FFC
FFF8
0000
0000
0000
FFFC
7FF8
ENDCHAR
STARTCHAR greater
ENCODING 62
SWIDTH 606 0
DWIDTH 17 0
BBX 14 15 2 1
BITMAP
E000
F000
3C00
0F00
07C0
01F0
0078
003C
00F8
01E0
0780
1E00
7800
F000
C000
ENDCHAR
STARTCHAR question
ENCODING 63
SWIDTH 516 0
DWIDTH 14 0
BBX 13 21 2 0
BITMAP
03E0
07F0
0E18
0E18
1E18
1E38
0C78
00F0
01E0
07C0
0F80
0E00
1C00
1800
1800
1000
0000
7000
F800
F000
7000
ENDCHAR
STARTCHAR at
ENCODING 64
SWIDTH 905 0
DWIDTH 25 0
BBX 24 22 1 -4
BITMAP
001FE0
00FFF8
01C01C
07000E
0E0006
1C1EC7
183FE7
3063C3
70E1C3
71C387
61C386
618706
E3870C
E38F1C
E19F38
61F3E0
704100
700000
380000
1C0100
0FFE00
03F800
ENDCHAR
STARTCHAR A
ENCODING 65
SWIDTH 615 0
DWIDTH 17 0
BBX 20 21 -2 0
BITMAP
0000F0
0003F0
000770
000E60
0018E0
0038E0
0031C0
0061C0
00E3C0
00C380
01FFE0
07FFE0
0F0700
070700
060700
0E0E00
1C0E00
1C0E00
380E40
F00FC0
E00780
ENDCHAR
STARTCHAR B
ENCODING 66
SWIDTH 551 0
DWIDTH 15 0
BBX 16 21 1 0
BITMAP
07F8
3FFE
7C0E
3607
0707
0F07
1E0E
1C0E
3C1C
3878
3FF0
7FE0
7870
7030
6038
E038
E070
E0F0
E1E0
7FC0
3E00
ENDCHAR
STARTCHAR C
ENCODING 67
SWIDTH 533 0
DWIDTH 15 0
BBX 16 21 1 0
BITMAP
007C
00FE
03C3
0783
0F07
1E07
1C0E
3C3E
383C
7818
7000
7000
7000
F000
F000
F000
F000
7030
7070
3FE0
1F80
ENDCHAR
STARTCHAR D
ENCODING 68
SWIDTH 630 0
DWIDTH 18 0
BBX 17 21 1 0
BITMAP
0FF000
3FFC00
3C0F00
100700
078380
070380
0F0380
0E0380
1E0380
1C0380
3C0780
380700
380F00
780E00
701C00
703C00
707800
E0F000
E3C000
7F8000
3E0000
ENDCHAR
STARTCHAR E
ENCODING 69
SWIDTH 509 0
DWIDTH 14 0
BBX 15 21 1 0
BITMAP
00FC
03FE
0786
0F06
1E0E
1C1E
3C3C
3878
3810
3800
1D80
0FC0
1F00
3C00
7800
F000
E020
E060
E0E0
7FC0
3F00
ENDCHAR
STARTCHAR F
ENCODING 70
SWIDTH 518 0
DWIDTH 15 0
BBX 16 21 1 0
BITMAP
1FC1
7FFF
7FFE
70C0
61C0
0180
0380
0380
0780
07F0
07F8
3FF8
1E00
0E00
1E00
1C00
3C00
3800
7000
E000
C000
ENDCHAR
STARTCHAR G
ENCODING 71
SWIDTH 598 0
DWIDTH 17 0
BBX 16 21 1 0
BITMAP
003C
00FE
03C3
0783
0F07
0E07
1C0E
3C3E
383C
7810
7000
7000
70FF
70FE
F03C
F030
F030
7060
70E0
3FC0
1F00
ENDCHAR
STARTCHAR H
ENCODING 72
SWIDTH 668 0
DWIDTH 19 0
BBX 21 21 -1 0
BITMAP
0FC030
0FC038
05C078
01C070
01C070
01C070
03C0E0
0380E0
0380E0
07FFF0
1FFFE0
0F0380
0F0380
0E0380
0E0700
1C0700
1C0700
380E00
700E40
F00F80
C00700
ENDCHAR
STARTCHAR I
ENCODING 73
SWIDTH 327 0
DWIDTH 9 0
BBX 10 21 0 0
BITMAP
0F80
1FC0
09C0
01C0
0380
0380
0380
0380
0780
0700
0700
0F00
0E00
0E00
1C00
1C00
3800
3800
7000
E000
C000
ENDCHAR
STARTCHAR J
ENCODING 74
SWIDTH 393 0
DWIDTH 11 0
BBX 17 29 -5 -8
BITMAP
003F00
00FF80
01E380
03C380
008780
000700
000700
000700
000F00
000E00
000E00
001E00
001C00
001C00
003C00
003800
007800
007000
00F000
00E000
01E000
01C000
038000
078000
070000
0E0000
1C0000
780000
E00000
ENDCHAR
STARTCHAR K
ENCODING 75
SWIDTH 616 0
DWIDTH 17 0
BBX 19 21 -1 0
BITMAP
0F81C0
1FC0E0
09C0E0
01C0E0
03C1E0
0381C0
0383C0
038780
078F00
071C00
073800
0F6000
0FC000
0EE000
1E7000
1C7800
3C3C00
381C00
701E00
F00FC0
C00780
ENDCHAR
STARTCHAR L
ENCODING 76
SWIDTH 517 0
DWIDTH 15 0
BBX 17 21 -1 0
BITMAP
001E00
007F00
007180
00E180
01C380
01C380
038700
038F00
07BE00
073C00
070800
0E0000
0E0000
1E0000
1C0000
1C0000
380000
300000
7FF800
FFFC00
780C00
ENDCHAR
STARTCHAR M
ENCODING 77
SWIDTH 931 0
DWIDTH 26 0
BBX 29 21 -3 0
BITMAP
0001E038
0003E0F8
0006E1F8
000DC1B0
0019C370
003B8770
00338660
00638CE0
00E78CE0
00C719E0
01C739C0
018731C0
038771C0
030E6380
070EE380
060EC380
0E0FC380
1C0F8380
380F0390
780F03F0
E00601E0
ENDCHAR
STARTCHAR N
ENCODING 78
SWIDTH 708 0
DWIDTH 20 0
BBX 21 21 1 0
BITMAP
00E060
01E0F0
03E078
07E078
06E078
0CE070
0CE070
18E070
18E0E0
38E0E0
30E0C0
70E180
70E180
60F300
E0F300
E07600
C07600
C07C00
C03C00
C01C00
C00C00
ENDCHAR
STARTCHAR O
ENCODING 79
SWIDTH 655 0
DWIDTH 18 0
BBX 17 21 2 0
BITMAP
007C00
01FE00
078700
0F0300
0E0380
1C0380
3C0380
380380
780780
700700
F00700
E00F00
E00E00
E01E00
E01C00
E03C00
E07800
E0F000
E1E000
7FC000
1F0000
ENDCHAR
STARTCHAR P
ENCODING 80
SWIDTH 553 0
DWIDTH 16 0
BBX 18 21 -1 0
BITMAP
00FE00
07FF80
0F81C0
0E01C0
04C1C0
01C1C0
01C1C0
0383C0
038780
078F00
071E00
07FC00
0FE000
0E0000
1E0000
1C0000
1C0000
380000
700000
F00000
E00000
ENDCHAR
STARTCHAR Q
ENCODING 81
SWIDTH 655 0
DWIDTH 18 0
BBX 18 25 2 -4
BITMAP
00FC00
03FE00
078700
0F0300
1E0300
1C0380
380780
780700
700700
700700
F00F00
E00E00
E01E00
E03C00
F03800
707000
78E000
11C000
078000
1F0000
3FE000
01F000
007C40
003FC0
000F80
ENDCHAR
STARTCHAR R
ENCODING 82
SWIDTH 623 0
DWIDTH 17 0
BBX 19 21 -1 0
BITMAP
00FE00
07FF80
0F01C0
0680C0
00C0C0
01C1E0
01C1C0
0381C0
038380
078780
071E00
07FC00
0FF000
0E7000
0E7000
1C3800
1C3C00
381C00
781E00
700FC0
E00780
ENDCHAR
STARTCHAR S
ENCODING 83
SWIDTH 474 0
DWIDTH 13 0
BBX 14 21 1 0
BITMAP
01F0
07F8
0E0C
1C0C
1C0C
381C
381C
383C
3C78
3C70
1E00
1E00
0F00
0780
0780
4380
C380
C180
E300
FF00
7C00
ENDCHAR
STARTCHAR T
ENCODING 84
SWIDTH 471 0
DWIDTH 13 0
BBX 16 21 2 0
BITMAP
3F83
FFFE
FFFE
E1C0
C1C0
0380
0380
0380
0700
0700
0700
0E00
0E00
0E00
1C00
1C00
1800
3800
7000
E000
C000
ENDCHAR
STARTCHAR U
ENCODING 85
SWIDTH 624 0
DWIDTH 17 0
BBX 18 21 1 0
BITMAP
0700C0
0F01C0
0701C0
070380
070380
0E0780
0E0700
1E0F00
1C0F00
3C1E00
381E00
383C00
707C00
707C00
E0DC00
E19800
E1B800
E33800
E63900
FC3F00
701E00
ENDCHAR
STARTCHAR V
ENCODING 86
SWIDTH 587 0
DWIDTH 16 0
BBX 18 22 2 0
BITMAP
000180
1E03C0
7F01C0
7F01C0
6381C0
0701C0
0F0380
0E0780
1E0700
1C0E00
3C1E00
383C00
387800
707000
70E000
71C000
E38000
E70000
EE0000
FC0000
780000
300000
ENDCHAR
STARTCHAR W
ENCODING 87
SWIDTH 941 0
DWIDTH 26 0
BBX 26 21 2 0
BITMAP
3E000380
7F0003C0
FF0003C0
670003C0
070003C0
0F0381C0
0E0781C0
1E1F03C0
1C3E0380
3C3E0380
387C0380
78FC0700
71DC0700
73B80E00
E3380E00
E6381C00
EE383800
EC383000
F838E000
F01FC000
700F0000
ENDCHAR
STARTCHAR X
ENCODING 88
SWIDTH 552 0
DWIDTH 15 0
BBX 22 21 -2 0
BITMAP
00601C
00E078
00E0F0
00E1C0
00E380
00E380
00E700
00EE00
00FC00
00F800
007000
007000
00F000
01F000
01F800
033800
073800
0E3C00
1C1EC0
780F80
E00700
ENDCHAR
STARTCHAR Y
ENCODING 89
SWIDTH 580 0
DWIDTH 16 0
BBX 19 29 0 -8
BITMAP
078060
0780E0
0380E0
0381C0
0781C0
0703C0
070380
0E0780
0E0700
1E0F00
1C1F00
3C1E00
383E00
383E00
706C00
70DC00
70DC00
F1B800
733800
7E7000
387000
00E000
00E000
01C000
038000
070000
0E0000
3C0000
780000
ENDCHAR
STARTCHAR Z
ENCODING 90
SWIDTH 501 0
DWIDTH 14 0
BBX 17 21 0 0
BITMAP
080F00
0FFF00
0FF780
078F00
001E00
003E00
003C00
007800
00F000
01E000
03C000
078000
0F0000
1E0000
3C0000
380000
700000
E1F000
FFF800
FFF800
F01800
ENDCHAR
STARTCHAR bracketleft
ENCODING 91
SWIDTH 396 0
DWIDTH 11 0
BBX 15 30 0 -5
BITMAP
0010
007E
0070
0070
00E0
00E0
00E0
01C0
01C0
0180
0380
0380
0300
0700
0700
0600
0E00
0E00
1C00
1C00
1C00
3800
3800
3800
7000
7000
7000
E000
F000
FC00
ENDCHAR
STARTCHAR backslash
ENCODING 92
SWIDTH 464 0
DWIDTH 13 0
BBX 10 30 1 -5
BITMAP
8000
E000
6000
6000
6000
7000
3000
3000
3000
3800
1800
1800
1800
1C00
0C00
0C00
0C00
0E00
0600
0600
0700
0700
0300
0300
0300
0380
0180
0180
01C0
00C0
ENDCHAR
STARTCHAR bracketright
ENCODING 93
SWIDTH 394 0
DWIDTH 11 0
BBX 15 30 -2 -5
BITMAP
0018
007E
000E
000C
001C
001C
0018
0038
0038
0030
0070
0070
0060
00E0
00E0
00C0
01C0
01C0
0380
0380
0380
0700
0700
0700
0E00
0E00
0C00
1C00
3C00
F800
ENDCHAR
STARTCHAR asciicircum
ENCODING 94
SWIDTH 540 0
DWIDTH 15 0
BBX 12 12 3 9
BITMAP
0600
0E00
0F00
1F00
1F80
3980
31C0
70C0
60E0
C060
C030
8020
ENDCHAR
STARTCHAR underscore
ENCODING 95
SWIDTH 530 0
DWIDTH 15 0
BBX 19 2 -5 -5
BITMAP
7FFFE0
FFFFC0
ENDCHAR
STARTCHAR grave
ENCODING 96
SWIDTH 219 0
DWIDTH 6 0
BBX 4 7 1 15
BITMAP
60
E0
E0
E0
60
30
10
ENDCHAR
STARTCHAR a
ENCODING 97
SWIDTH 541 0
DWIDTH 15 0
BBX 14 15 1 -1
BITMAP
03DC
0FFC
1C38
3838
3878
7070
7070
E0E0
E0E0
E1E0
E3E0
E2E0
7EF8
38F8
0020
ENDCHAR
STARTCHAR b
ENCODING 98
SWIDTH 525 0
DWIDTH 15 0
BBX 13 23 1 0
BITMAP
0600
0700
0E00
0E00
0E00
0E00
1C00
1C00
1C00
19E0
3BF0
3E70
3C78
7878
7078
7070
E070
E0F0
E0E0
E1E0
E3C0
7F00
3C00
ENDCHAR
STARTCHAR c
ENCODING 99
SWIDTH 465 0
DWIDTH 13 0
BBX 12 14 1 0
BITMAP
03C0
0FE0
1C70
3870
7870
70E0
F0C0
E000
E000
E000
E040
E0C0
7F80
3E00
ENDCHAR
STARTCHAR d
ENCODING 100
SWIDTH 557 0
DWIDTH 16 0
BBX 17 23 1 0
BITMAP
000180
000380
000380
000700
000700
000E00
000E00
000E00
001C00
03DC00
07FC00
0E3800
1C3800
383800
707800
707000
F07000
E0F000
E0E000
E1E000
E36400
7E7C00
3C3800
ENDCHAR
STARTCHAR e
ENCODING 101
SWIDTH 471 0
DWIDTH 13 0
BBX 12 14 1 0
BITMAP
03C0
0FE0
1C70
3870
3870
70E0
71E0
F780
FE00
E000
E040
70C0
7FC0
3F00
ENDCHAR
STARTCHAR f
ENCODING 102
SWIDTH 393 0
DWIDTH 11 0
BBX 16 27 -1 -4
BITMAP
0008
003E
0077
00E7
00C7
01CF
01CE
0180
0380
0380
03F0
07F8
1FF8
3F00
0600
0E00
0E00
0E00
1C00
1C00
1C00
3800
3800
3800
7000
7000
E000
ENDCHAR
STARTCHAR g
ENCODING 103
SWIDTH 526 0
DWIDTH 15 0
BBX 14 22 1 -8
BITMAP
03C0
0FFC
1C3C
3838
3838
7078
7070
F070
E0F0
E1E0
E1E0
E3E0
7EC0
3DC0
01C0
0380
0380
0700
0E00
1E00
7800
7000
ENDCHAR
STARTCHAR h
ENCODING 104
SWIDTH 555 0
DWIDTH 16 0
BBX 14 23 0 0
BITMAP
0180
0380
0380
0380
0380
0380
0700
0700
0700
073C
0E7C
0EFC
0CDC
1D9C
1F1C
1E38
3C38
3870
7870
7070
F0F4
E07C
E078
ENDCHAR
STARTCHAR i
ENCODING 105
SWIDTH 286 0
DWIDTH 8 0
BBX 8 21 1 0
BITMAP
07
0F
0F
06
00
00
00
3C
3C
1C
1C
38
38
70
70
60
E0
E0
F8
F8
70
ENDCHAR
STARTCHAR j
ENCODING 106
SWIDTH 281 0
DWIDTH 8 0
BBX 13 29 -5 -8
BITMAP
0038
0078
0078
0030
0000
0000
0000
00F0
00F0
00F0
00F0
00E0
00E0
00E0
00E0
01C0
01C0
01C0
0180
0380
0380
0700
0700
0E00
0C00
1C00
3800
7000
E000
ENDCHAR
STARTCHAR k
ENCODING 107
SWIDTH 497 0
DWIDTH 14 0
BBX 14 23 0 0
BITMAP
0180
0380
0380
0380
0380
0380
0700
0700
0700
063C
0E1C
0E1C
0C3C
1C78
1DE0
1F80
3F00
3F00
7380
7380
E3E8
E1F8
C0F0
ENDCHAR
STARTCHAR l
ENCODING 108
SWIDTH 279 0
DWIDTH 8 0
BBX 8 23 1 0
BITMAP
06
07
07
07
0E
0E
0E
0E
1C
1C
1C
38
38
38
70
70
70
E0
E0
E0
E8
F8
70
ENDCHAR
STARTCHAR m
ENCODING 109
SWIDTH 814 0
DWIDTH 23 0
BBX 22 14 0 0
BITMAP
1C3838
1E7C7C
0EFCFC
0ECD9C
1D8F38
1F1E38
1E1C70
3C3C70
3838E0
7870E0
7070E0
F0E0E8
E0E0F8
E0C070
ENDCHAR
STARTCHAR n
ENCODING 110
SWIDTH 561 0
DWIDTH 16 0
BBX 15 14 0 0
BITMAP
1C3C
1E7C
0EFE
0FCE
1D9C
1F1C
1E38
3C38
3870
7870
7070
F074
E07C
E038
ENDCHAR
STARTCHAR o
ENCODING 111
SWIDTH 514 0
DWIDTH 14 0
BBX 12 14 1 0
BITMAP
03C0
0FF0
1C70
3C70
7870
7070
7070
E070
E0E0
E0E0
E1C0
E3C0
7F00
3E00
ENDCHAR
STARTCHAR p
ENCODING 112
SWIDTH 550 0
DWIDTH 15 0
BBX 16 22 -2 -8
BITMAP
071E
0F7F
07E7
07C7
0787
0707
0F07
0E07
0E0E
0E1E
1C1C
1E38
1FF0
1BC0
3800
3800
3000
7000
7000
E000
E000
C000
ENDCHAR
STARTCHAR q
ENCODING 113
SWIDTH 533 0
DWIDTH 15 0
BBX 14 22 1 -8
BITMAP
03C0
07FC
1E3C
3C3C
3838
7078
7070
F070
E0F0
E1E0
E1E0
E3C0
7EC0
39C0
0180
0380
0380
0380
0300
0300
0380
0380
ENDCHAR
STARTCHAR r
ENCODING 114
SWIDTH 407 0
DWIDTH 11 0
BBX 13 14 0 0
BITMAP
1C30
1EF8
1EF8
1DB0
1F00
1E00
1C00
3C00
3800
3800
7000
7000
E000
6000
ENDCHAR
STARTCHAR s
ENCODING 115
SWIDTH 423 0
DWIDTH 12 0
BBX 12 14 0 0
BITMAP
07C0
0FE0
1C70
1C70
1C60
1C00
1E00
0F00
0780
0780
6380
E380
7F00
3C00
ENDCHAR
STARTCHAR t
ENCODING 116
SWIDTH 358 0
DWIDTH 10 0
BBX 10 18 2 0
BITMAP
0600
0E00
0E00
1C00
7FC0
3C00
3800
3800
7000
7000
7000
6000
E000
E000
E200
F600
FC00
7800
ENDCHAR
STARTCHAR u
ENCODING 117
SWIDTH 553 0
DWIDTH 15 0
BBX 14 14 1 0
BITMAP
1C0C
3C1C
1C3C
1C38
3878
3870
78F0
70E0
F1E0
E3E0
E6E0
ECE8
F8F8
F070
ENDCHAR
STARTCHAR v
ENCODING 118
SWIDTH 510 0
DWIDTH 14 0
BBX 13 14 1 0
BITMAP
1C70
3C78
1C38
1C38
3838
3838
7030
7070
7060
E0C0
E1C0
E380
FE00
7800
ENDCHAR
STARTCHAR w
ENCODING 119
SWIDTH 750 0
DWIDTH 21 0
BBX 20 14 1 0
BITMAP
3C00E0
3C18E0
1C38F0
1C7870
387060
38F060
38E0E0
71E0C0
73E0C0
66C180
ECC380
F8E700
F0FC00
E07800
ENDCHAR
STARTCHAR x
ENCODING 120
SWIDTH 467 0
DWIDTH 13 0
BBX 15 14 -1 0
BITMAP
060E
0E1E
0E38
0E70
0EE0
0EC0
0780
0700
0700
0F80
1F80
39C8
71F0
E0E0
ENDCHAR
STARTCHAR y
ENCODING 121
SWIDTH 549 0
DWIDTH 15 0
BBX 14 22 1 -8
BITMAP
1C0C
3C1C
1C1C
1C3C
3C38
3878
38F8
70F0
71F0
E360
E6E0
ECE0
F8C0
71C0
0180
0380
0300
0700
0E00
1C00
7800
6000
ENDCHAR
STARTCHAR z
ENCODING 122
SWIDTH 430 0
DWIDTH 12 0
BBX 13 14 0 0
BITMAP
1C30
1FF8
0778
00F0
01E0
03C0
0780
0E00
1C00
3800
7000
EF80
FFC0
60C0
ENDCHAR
STARTCHAR braceleft
ENCODING 123
SWIDTH 424 0
DWIDTH 12 0
BBX 14 30 1 -5
BITMAP
0018
003C
0070
00E0
00E0
00E0
00C0
01C0
01C0
01C0
0380
0380
0700
0F00
3E00
3800
1800
1C00
1C00
1C00
1C00
3800
3800
7000
7000
7000
6000
E000
7000
7800
ENDCHAR
STARTCHAR bar
ENCODING 124
SWIDTH 306 0
DWIDTH 9 0
BBX 3 29 3 -5
BITMAP
60
60
E0
E0
E0
E0
E0
E0
E0
E0
E0
E0
E0
E0
E0
E0
E0
E0
E0
E0
E0
E0
E0
E0
E0
E0
E0
E0
40
ENDCHAR
STARTCHAR braceright
ENCODING 125
SWIDTH 424 0
DWIDTH 12 0
BBX 14 30 -2 -5
BITMAP
0010
007C
001C
001C
001C
001C
0038
0038
0038
0070
0070
0070
0070
0070
0070
0038
00F8
01C0
0380
0380
0700
0700
0700
0E00
0E00
0E00
1C00
1C00
7800
F000
ENDCHAR
STARTCHAR asciitilde
ENCODING 126
SWIDTH 624 0
DWIDTH 17 0
BBX 15 6 2 7
BITMAP
1E02
3F06
7F8C
E7FC
C3F8
80E0
ENDCHAR
STARTCHAR nonbreakingspace
ENCODING 160
SWIDTH 293 0
DWIDTH 8 0
BBX 1 1 0 0
BITMAP
00
ENDCHAR
STARTCHAR exclamdown
ENCODING 161
SWIDTH 417 0
DWIDTH 12 0
BBX 10 22 1 -6
BITMAP
0380
07C0
07C0
0380
0000
0200
0600
0C00
1C00
1800
3800
3800
7800
7000
7000
F000
E000
E000
E000
E000
E000
6000
ENDCHAR
STARTCHAR cent
ENCODING 162
SWIDTH 487 0
DWIDTH 14 0
BBX 12 21 2 0
BITMAP
0070
00E0
00C0
00C0
07C0
0FE0
1C60
3860
78E0
71E0
F0C0
E000
E000
E000
E0C0
71C0
7F80
1800
3000
3000
3000
ENDCHAR
STARTCHAR sterling
ENCODING 163
SWIDTH 665 0
DWIDTH 19 0
BBX 20 21 -1 0
BITMAP
0003C0
0007E0
000E30
001C30
003C70
003870
0078E0
0071E0
00F3C0
00F180
00F800
07FE00
05C000
01C000
03C000
1B8000
7F8000
67E0C0
C7FFC0
FE3F80
781F00
ENDCHAR
STARTCHAR currency
ENCODING 164
SWIDTH 572 0
DWIDTH 16 0
BBX 15 18 2 1
BITMAP
0400
0C04
0C0E
0C9C
0FF8
0E70
1C70
3870
3870
7070
7070
70F0
70E0
71C0
7F80
FEC0
C0C0
8040
ENDCHAR
STARTCHAR yen
ENCODING 165
SWIDTH 583 0
DWIDTH 16 0
BBX 18 21 2 0
BITMAP
7001C0
F807C0
B80F80
3C0F00
1C1E00
0C3C00
0E7800
0E7000
06E000
06E000
07C000
078000
3FF000
7FE000
070000
070000
7FE000
7FC000
0E0000
0C0000
0C0000
ENDCHAR
STARTCHAR brokenbar
ENCODING 166
SWIDTH 292 0
DWIDTH 8 0
BBX 3 29 3 -5
BITMAP
40
E0
E0
E0
E0
E0
E0
E0
E0
E0
E0
E0
C0
00
00
00
40
E0
E0
E0
E0
E0
E0
E0
E0
E0
E0
E0
C0
ENDCHAR
STARTCHAR section
ENCODING 167
SWIDTH 583 0
DWIDTH 16 0
BBX 17 29 0 -6
BITMAP
001800
007E00
00E300
01C380
01C380
03C380
03C780
01CF00
01CE00
01E000
03E000
0FF000
1C7000
1C7800
1C3800
1C3C00
1C1C00
1E1C00
1E1800
0F3800
0FF000
07C000
038000
638000
E18000
E18000
E38000
7F0000
3E0000
ENDCHAR
STARTCHAR dieresis
ENCODING 168
SWIDTH 412 0
DWIDTH 12 0
BBX 11 4 1 17
BITMAP
71C0
F3E0
F3C0
61C0
ENDCHAR
STARTCHAR copyright
ENCODING 169
SWIDTH 871 0
DWIDTH 24 0
BBX 21 21 2 0
BITMAP
007F00
01FFC0
0700E0
0E0870
1C7E30
38F338
31C318
71C718
638718
E39E18
E38C18
E70018
E70038
E30030
E38C70
61F860
7020C0
3001C0
1C0700
0FFE00
03F800
ENDCHAR
STARTCHAR ordfeminine
ENCODING 170
SWIDTH 564 0
DWIDTH 16 0
BBX 13 13 3 8
BITMAP
0110
0FB8
1CF0
3870
30E0
70E0
61C0
E1C0
E3C0
E3C0
E7D0
7DF0
78E0
ENDCHAR
STARTCHAR guillemotleft
ENCODING 171
SWIDTH 662 0
DWIDTH 19 0
BBX 15 11 2 3
BITMAP
0102
070E
0E1C
3C78
F1E0
E1C0
F1E0
78F0
3C78
1C38
0E1C
ENDCHAR
STARTCHAR logicalnot
ENCODING 172
SWIDTH 729 0
DWIDTH 20 0
BBX 16 9 2 2
BITMAP
7FFE
FFFF
0007
0007
0007
0007
0007
0007
0006
ENDCHAR
STARTCHAR uni00AD
ENCODING 173
SWIDTH 833 0
DWIDTH 23 0
BBX 1 1 0 0
BITMAP
00
ENDCHAR
STARTCHAR registered
ENCODING 174
SWIDTH 742 0
DWIDTH 21 0
BBX 17 18 3 3
BITMAP
01F800
07FC00
1C0600
39E300
77F180
663980
C33980
C33180
C7E180
C7C180
C6C180
C6C300
CC7700
C82600
600C00
783800
1FF000
078000
ENDCHAR
STARTCHAR macron
ENCODING 175
SWIDTH 392 0
DWIDTH 11 0
BBX 10 2 2 16
BITMAP
FFC0
FF80
ENDCHAR
STARTCHAR degree
ENCODING 176
SWIDTH 405 0
DWIDTH 11 0
BBX 9 9 3 12
BITMAP
1F00
3F80
7380
E380
E380
E380
E700
7E00
1000
ENDCHAR
STARTCHAR plusminus
ENCODING 177
SWIDTH 617 0
DWIDTH 17 0
BBX 14 18 2 0
BITMAP
0300
0300
0300
0300
0300
0300
FFFC
7FF0
0300
0300
0300
0300
0300
0200
0000
0000
7FF8
FFFC
ENDCHAR
STARTCHAR twosuperior
ENCODING 178
SWIDTH 458 0
DWIDTH 13 0
BBX 11 14 2 7
BITMAP
07C0
0FE0
1C60
1860
18E0
1CE0
01C0
0380
0F00
1E00
3800
7080
FF80
FF80
ENDCHAR
STARTCHAR threesuperior
ENCODING 179
SWIDTH 430 0
DWIDTH 12 0
BBX 11 14 2 7
BITMAP
07C0
0FE0
1CE0
18E0
1CE0
01E0
07C0
0F00
0F80
0380
E380
E380
E700
7E00
ENDCHAR
STARTCHAR acute
ENCODING 180
SWIDTH 322 0
DWIDTH 9 0
BBX 6 7 3 15
BITMAP
18
1C
1C
38
70
E0
C0
ENDCHAR
STARTCHAR mu
ENCODING 181
SWIDTH 618 0
DWIDTH 17 0
BBX 18 22 -1 -8
BITMAP
018180
0383C0
038380
070700
0F0700
0E0E00
0E1E00
1C1E00
1C3C00
3C7C00
3CDC00
3DDF80
7F9F00
7E0E00
600000
600000
600000
E00000
E00000
E00000
E00000
C00000
ENDCHAR
STARTCHAR paragraph
ENCODING 182
SWIDTH 739 0
DWIDTH 21 0
BBX 23 24 1 -2
BITMAP
000FFE
007FFC
01FE30
03FC70
07FC70
07FC70
0FF8E0
0FF8E0
0FF8E0
07F8E0
07F1C0
03F1C0
00F1C0
00F180
00E380
00E380
01E300
01C700
79C600
F38600
E38E00
E70C00
FE1800
781800
ENDCHAR
STARTCHAR periodcentered
ENCODING 183
SWIDTH 353 0
DWIDTH 10 0
BBX 5 4 3 7
BITMAP
70
F8
F8
70
ENDCHAR
STARTCHAR cedilla
ENCODING 184
SWIDTH 301 0
DWIDTH 8 0
BBX 5 7 2 -6
BITMAP
20
30
18
38
70
F0
E0
ENDCHAR
STARTCHAR onesuperior
ENCODING 185
SWIDTH 403 0
DWIDTH 11 0
BBX 8 15 3 6
BITMAP
07
0F
1F
3F
F7
0E
0E
0C
1C
18
38
30
70
60
40
ENDCHAR
STARTCHAR ordmasculine
ENCODING 186
SWIDTH 498 0
DWIDTH 14 0
BBX 11 13 3 8
BITMAP
0300
0FC0
1CE0
38E0
70E0
70E0
E0E0
E1C0
E1C0
E380
E380
7F00
3C00
ENDCHAR
STARTCHAR guillemotright
ENCODING 187
SWIDTH 665 0
DWIDTH 19 0
BBX 15 11 2 3
BITMAP
70E0
78F0
3C70
1C38
0E1C
070E
0E1C
3C78
70E0
E1C0
8100
ENDCHAR
STARTCHAR onequarter
ENCODING 188
SWIDTH 988 0
DWIDTH 28 0
BBX 22 23 3 0
BITMAP
000080
000180
060380
0F0700
3F0600
7E0E00
EE0C00
0E1C00
1C3980
1C39C0
1871C0
3861C0
30E38C
70C39C
61C71C
C3871C
030E38
0707FC
0603FC
0E0070
0C0060
1C00C0
180080
ENDCHAR
STARTCHAR onehalf
ENCODING 189
SWIDTH 988 0
DWIDTH 28 0
BBX 23 22 3 0
BITMAP
000180
060380
0F0300
1F0700
7E0E00
FE0C00
0E1C00
1C1800
1C3878
1871FC
38738E
30E38E
70C3CE
61C19E
E1803C
838078
0700F0
0601C0
0E0780
0C0F08
1C0FF8
180FF0
ENDCHAR
STARTCHAR threequarters
ENCODING 190
SWIDTH 1007 0
DWIDTH 28 0
BBX 25 23 1 0
BITMAP
00001000
00003800
07C07000
0FE06000
1CE0E000
18E0C000
1CE1C000
01C38000
07C31000
0F071800
0F863800
038E3800
E39C3180
E39C7380
E7386380
7C30E300
0070C700
0060FF80
00E07E80
01C00C00
01800C00
03801800
03001000
ENDCHAR
STARTCHAR questiondown
ENCODING 191
SWIDTH 516 0
DWIDTH 14 0
BBX 13 21 0 -5
BITMAP
0030
0078
0078
0070
0000
0040
0060
00E0
01C0
03C0
0780
1F00
3E00
7800
7180
E3C0
E1C0
C1C0
E380
7F00
3E00
ENDCHAR
STARTCHAR Agrave
ENCODING 192
SWIDTH 615 0
DWIDTH 17 0
BBX 20 27 -2 0
BITMAP
000180
000380
0003C0
0001E0
000060
000000
0000F0
0003F0
000770
000E60
0018E0
0038E0
0031C0
0061C0
00E3C0
00C380
01FFE0
07FFE0
0F0700
070700
060700
0E0E00
1C0E00
1C0E00
380E40
F00FC0
E00780
ENDCHAR
STARTCHAR Aacute
ENCODING 193
SWIDTH 615 0
DWIDTH 17 0
BBX 22 27 -2 0
BITMAP
000018
00001C
000038
000078
0000E0
000000
0000F0
0003F0
000770
000E60
0018E0
0038E0
0031C0
0061C0
00E3C0
00C380
01FFE0
07FFE0
0F0700
070700
060700
0E0E00
1C0E00
1C0E00
380E40
F00FC0
E00780
ENDCHAR
STARTCHAR Acircumflex
ENCODING 194
SWIDTH 615 0
DWIDTH 17 0
BBX 22 27 -2 0
BITMAP
000030
000070
0000F8
0003B8
00071C
000000
0000F0
0003F0
000770
000E60
0018E0
0038E0
0031C0
0061C0
00E3C0
00C380
01FFE0
07FFE0
0F0700
070700
060700
0E0E00
1C0E00
1C0E00
380E40
F00FC0
E00780
ENDCHAR
STARTCHAR Atilde
ENCODING 195
SWIDTH 615 0
DWIDTH 17 0
BBX 23 27 -2 0
BITMAP
0001C2
0003E6
0007FC
000478
000000
000000
0000F0
0003F0
000770
000E60
0018E0
0038E0
0031C0
0061C0
00E3C0
00C380
01FFE0
07FFE0
0F0700
070700
060700
0E0E00
1C0E00
1C0E00
380E40
F00FC0
E00780
ENDCHAR
STARTCHAR Adieresis
ENCODING 196
SWIDTH 615 0
DWIDTH 17 0
BBX 23 27 -2 0
BITMAP
000208
00079E
00079E
00071E
000208
000000
0000F0
0003F0
000770
000E60
0018E0
0038E0
0031C0
0061C0
00E3C0
00C380
01FFE0
07FFE0
0F0700
070700
060700
0E0E00
1C0E00
1C0E00
380F40
F00FC0
E00780
ENDCHAR
STARTCHAR Aring
ENCODING 197
SWIDTH 615 0
DWIDTH 17 0
BBX 22 27 -2 0
BITMAP
000078
0001F8
00019C
00039C
00039C
000398
0001F0
0003F0
0007F0
000E60
001CE0
0038E0
0071C0
0061C0
00E1C0
01C380
01FFE0
07FFE0
0F0700
070700
0E0700
0E0E00
1C0E00
180E00
380E40
F00FC0
E00780
ENDCHAR
STARTCHAR AE
ENCODING 198
SWIDTH 878 0
DWIDTH 25 0
BBX 29 21 -2 0
BITMAP
0000F7E0
0003FFF0
00073C18
000E7838
001CF038
0018E0F0
0030E1F0
0070E1E0
00E0E080
00C0E000
01FFFE00
03FFFE00
0FFFF800
0701E000
0603C000
0E038000
1C038100
1C078380
38038700
7003FE00
E000F800
ENDCHAR
STARTCHAR Ccedilla
ENCODING 199
SWIDTH 533 0
DWIDTH 15 0
BBX 16 27 1 -6
BITMAP
003C
00FE
03C3
0783
0F07
0E07
1C0E
3C3E
383C
7818
7000
7000
7000
7000
F000
F000
F000
7030
7070
3FE0
1F80
0C00
0C00
0E00
1C00
3C00
3800
ENDCHAR
STARTCHAR Egrave
ENCODING 200
SWIDTH 509 0
DWIDTH 14 0
BBX 15 27 1 0
BITMAP
0060
00E0
00F0
0070
0038
0000
00FC
03FE
0786
0F06
1E0E
1C1E
3C3C
3878
3810
3800
1D80
0FC0
1F00
3C00
7800
F000
E020
E060
E0E0
7FC0
3F00
ENDCHAR
STARTCHAR Eacute
ENCODING 201
SWIDTH 509 0
DWIDTH 14 0
BBX 16 27 1 0
BITMAP
0006
0007
000E
001C
0038
0000
00FC
03FE
0786
0F06
1E0E
1C1E
3C3C
3878
3810
3800
1D80
0FC0
1F00
3C00
7800
F000
E020
E060
E0E0
7FC0
3F00
ENDCHAR
STARTCHAR Ecircumflex
ENCODING 202
SWIDTH 509 0
DWIDTH 14 0
BBX 16 27 1 0
BITMAP
000C
001C
003E
00EE
01C7
0000
00FC
03FE
0786
0F06
1E0E
1C1E
3C3C
3878
3810
3800
1D80
0FC0
1F00
3C00
7800
F000
E020
E060
E0E0
7FC0
3F00
ENDCHAR
STARTCHAR Edieresis
ENCODING 203
SWIDTH 509 0
DWIDTH 14 0
BBX 17 27 1 0
BITMAP
008200
01E780
01E780
01C780
008200
000000
00FC00
03FE00
078600
0F0600
1E0E00
1C1E00
3C3C00
387800
381000
380000
1D8000
0FC000
1F0000
3C0000
780000
F00000
E02000
E06000
E0E000
7FC000
3F0000
ENDCHAR
STARTCHAR Igrave
ENCODING 204
SWIDTH 327 0
DWIDTH 9 0
BBX 10 27 0 0
BITMAP
0300
0700
0380
03C0
00C0
0000
0F80
1FC0
09C0
01C0
0380
0380
0380
0380
0780
0700
0700
0F00
0E00
0E00
1C00
1C00
3800
3800
7000
E000
C000
ENDCHAR
STARTCHAR Iacute
ENCODING 205
SWIDTH 327 0
DWIDTH 9 0
BBX 13 27 0 0
BITMAP
0030
0038
0078
00F0
00C0
0000
0F80
1FC0
09C0
01C0
0380
0380
0380
0380
0780
0700
0700
0F00
0E00
0E00
1C00
1C00
3800
3800
7000
E000
C000
ENDCHAR
STARTCHAR Icircumflex
ENCODING 206
SWIDTH 327 0
DWIDTH 9 0
BBX 13 27 0 0
BITMAP
0060
00E0
01F0
0778
0E38
0000
0F80
1FC0
09C0
01C0
0380
0380
0380
0380
0780
0700
0700
0F00
0E00
0E00
1C00
1C00
3800
3800
7000
E000
C000
ENDCHAR
STARTCHAR Idieresis
ENCODING 207
SWIDTH 327 0
DWIDTH 9 0
BBX 14 27 0 0
BITMAP
0408
0F3C
0F3C
0E3C
0410
0000
0F80
1FC0
09C0
01C0
0380
0380
0380
0380
0780
0700
0700
0F00
0E00
0E00
1C00
1C00
3800
3800
7000
E000
C000
ENDCHAR
STARTCHAR Eth
ENCODING 208
SWIDTH 630 0
DWIDTH 18 0
BBX 17 21 1 0
BITMAP
0FF000
3FFC00
380E00
000700
070380
0F0380
0E0380
1E0380
FFC380
FFC780
380700
380700
780E00
701E00
701C00
703800
E07000
E0E000
E3C000
7F8000
3C0000
ENDCHAR
STARTCHAR Ntilde
ENCODING 209
SWIDTH 708 0
DWIDTH 20 0
BBX 21 27 1 0
BITMAP
000708
000F98
001FF8
0011E0
000000
000000
00E060
01E0F0
03E078
07E078
06E078
0CE070
0CE070
18E070
18E0E0
38E0E0
30E0C0
70E180
70E180
60F300
E0F300
E07600
C07600
C07C00
C03C00
C01C00
C00C00
ENDCHAR
STARTCHAR Ograve
ENCODING 210
SWIDTH 655 0
DWIDTH 18 0
BBX 17 27 2 0
BITMAP
003000
003800
003800
001C00
000E00
000000
007C00
01FE00
078700
0F0300
0E0380
1C0380
3C0380
380380
780780
700700
F00700
E00F00
E00E00
E01E00
E01C00
E03C00
E07800
E0F000
E1E000
7FC000
1F0000
ENDCHAR
STARTCHAR Oacute
ENCODING 211
SWIDTH 655 0
DWIDTH 18 0
BBX 17 27 2 0
BITMAP
000180
000380
000380
000700
000C00
000000
007C00
01FE00
078700
0F0300
0E0380
1C0380
3C0380
380380
780780
700700
F00700
E00F00
E00E00
E01E00
E01C00
E03C00
E07800
E0F000
E1E000
7FC000
1F0000
ENDCHAR
STARTCHAR Ocircumflex
ENCODING 212
SWIDTH 655 0
DWIDTH 18 0
BBX 17 27 2 0
BITMAP
000200
000F00
001F00
007B80
00E180
000000
007C00
01FE00
078700
0F0300
0E0380
1C0380
3C0380
380380
780780
700700
F00700
E00F00
E00E00
E01E00
E01C00
E03C00
E07800
E0F000
E1E000
7FC000
1F0000
ENDCHAR
STARTCHAR Otilde
ENCODING 213
SWIDTH 655 0
DWIDTH 18 0
BBX 19 27 2 0
BITMAP
003C60
007E40
00FFC0
00CF80
000000
000000
007C00
01FE00
078700
0F0300
0E0380
1C0380
3C0380
380380
780780
700700
F00700
E00F00
E00E00
E01E00
E01C00
E03C00
E07800
E0F000
E1E000
7FC000
1F0000
ENDCHAR
STARTCHAR Odieresis
ENCODING 214
SWIDTH 655 0
DWIDTH 18 0
BBX 19 27 2 0
BITMAP
002080
00F1C0
00F3E0
00F1C0
004080
000000
007C00
01FE00
078700
0F0300
0E0380
1C0380
3C0380
380380
780780
700700
F00700
E00F00
E00E00
E01E00
E01C00
E03C00
E07800
E0F000
E1E000
7FC000
1F0000
ENDCHAR
STARTCHAR multiply
ENCODING 215
SWIDTH 573 0
DWIDTH 16 0
BBX 12 11 3 4
BITMAP
C070
E0E0
71C0
3B80
1F00
0E00
1F00
3B80
71C0
E0E0
C060
ENDCHAR
STARTCHAR Oslash
ENCODING 216
SWIDTH 655 0
DWIDTH 18 0
BBX 17 26 3 -2
BITMAP
000100
000380
000700
007E00
01FE00
079F00
0F1B00
1E3380
1C3380
3C6380
384780
70C700
718700
F10700
E30E00
E20E00
E61E00
EC1C00
CC3800
D87800
F8F000
F1E000
7F8000
FE0000
C00000
800000
ENDCHAR
STARTCHAR Ugrave
ENCODING 217
SWIDTH 624 0
DWIDTH 17 0
BBX 18 27 1 0
BITMAP
003000
007000
007800
003800
001C00
000000
0700C0
0F01C0
0701C0
070380
070380
0E0780
0E0700
1E0F00
1C0F00
3C1E00
381E00
383C00
707C00
707C00
E0DC00
E19800
E1B800
E33800
E63900
FC3F00
701E00
ENDCHAR
STARTCHAR Uacute
ENCODING 218
SWIDTH 624 0
DWIDTH 17 0
BBX 18 27 1 0
BITMAP
000300
000380
000700
000E00
001C00
000000
0700C0
0F01C0
0701C0
070380
070380
0E0780
0E0700
1E0F00
1C0F00
3C1E00
381E00
383C00
707C00
707C00
E0DC00
E19800
E1B800
E33800
E63900
FC3F00
701E00
ENDCHAR
STARTCHAR Ucircumflex
ENCODING 219
SWIDTH 624 0
DWIDTH 17 0
BBX 18 27 1 0
BITMAP
000600
000E00
003F00
007700
00E380
000000
0700C0
0F01C0
0701C0
070380
070380
0E0780
0E0700
1E0F00
1C0F00
3C1E00
381E00
383C00
707C00
707C00
E0DC00
E19800
E1B800
E33800
E63900
FC3F00
701E00
ENDCHAR
STARTCHAR Udieresis
ENCODING 220
SWIDTH 624 0
DWIDTH 17 0
BBX 18 27 1 0
BITMAP
004100
00F3C0
01F3C0
00E3C0
004100
000000
0700C0
0F01C0
0701C0
070380
070380
0E0780
0E0700
1E0F00
1C0F00
3C1E00
381E00
383C00
707C00
707C00
E0DC00
E19800
E1B800
E33800
E63900
FC3F00
701E00
ENDCHAR
STARTCHAR Yacute
ENCODING 221
SWIDTH 580 0
DWIDTH 16 0
BBX 19 35 0 -8
BITMAP
000100
000180
000380
000780
000F00
000800
078060
0780E0
0380E0
0381C0
0781C0
0703C0
070380
0E0780
0E0700
1E0F00
1C1F00
3C1E00
383E00
383E00
706C00
70DC00
70DC00
F1B800
733800
7E7000
387000
00E000
00E000
01C000
038000
070000
0E0000
3C0000
780000
ENDCHAR
STARTCHAR Thorn
ENCODING 222
SWIDTH 527 0
DWIDTH 15 0
BBX 16 21 -1 0
BITMAP
0F80
1FC0
09C0
03C0
0380
03E0
03FC
038E
0707
0707
0707
0E0F
0E1E
0E3C
1FF8
1FE0
3800
3800
7000
E000
C000
ENDCHAR
STARTCHAR germandbls
ENCODING 223
SWIDTH 520 0
DWIDTH 15 0
BBX 16 27 -1 -4
BITMAP
003C
00FE
01C7
01C3
0387
0387
070F
070E
071C
0E38
0E30
0E70
0E60
1C60
1C70
1C78
1C38
383C
381C
3B0E
738C
73FC
71F0
E000
E000
E000
8000
ENDCHAR
STARTCHAR agrave
ENCODING 224
SWIDTH 541 0
DWIDTH 15 0
BBX 14 23 1 -1
BITMAP
00C0
01C0
01C0
01C0
00C0
00C0
0060
0000
03DC
0FFC
1C38
3838
3878
7070
7070
E0E0
E0E0
E1E0
E3E0
E2E0
7EF8
38F8
0020
ENDCHAR
STARTCHAR aacute
ENCODING 225
SWIDTH 541 0
DWIDTH 15 0
BBX 14 23 1 -1
BITMAP
0030
0038
0078
0070
00E0
01C0
0100
0000
03DC
0FFC
1C38
3838
3878
7070
7070
E0E0
E0E0
E1E0
E3E0
E2E0
7EF8
38F8
0020
ENDCHAR
STARTCHAR acircumflex
ENCODING 226
SWIDTH 541 0
DWIDTH 15 0
BBX 14 22 1 -1
BITMAP
0038
0078
00F8
0398
0F1C
0408
0000
03DC
0FFC
1C38
3838
3878
7070
7070
E0E0
E0E0
E1E0
E3E0
E2E0
7EF8
38F8
0020
ENDCHAR
STARTCHAR atilde
ENCODING 227
SWIDTH 541 0
DWIDTH 15 0
BBX 15 22 1 -1
BITMAP
01C2
07E6
07FC
0478
0000
0000
0000
03DC
0FFC
1C38
3838
3878
7070
7070
E0E0
E0E0
E1E0
E3E0
E2E0
7EF8
38F8
0020
ENDCHAR
STARTCHAR adieresis
ENCODING 228
SWIDTH 541 0
DWIDTH 15 0
BBX 15 22 1 -1
BITMAP
070E
079E
079E
071C
0000
0000
0000
03DC
0FFC
1C38
3838
3878
7070
7070
E0E0
E0E0
E1E0
E3E0
E2E0
7EF8
38F8
0020
ENDCHAR
STARTCHAR aring
ENCODING 229
SWIDTH 541 0
DWIDTH 15 0
BBX 14 23 1 -1
BITMAP
00F8
01F8
039C
031C
03B8
03F0
0040
0000
03DC
0FFC
1C38
3838
3878
7070
7070
E0E0
E0E0
E1E0
E3E0
E2E0
7EF8
38F8
0020
ENDCHAR
STARTCHAR ae
ENCODING 230
SWIDTH 769 0
DWIDTH 22 0
BBX 20 14 1 0
BITMAP
03DFE0
0FFFF0
1C3C70
383870
3878F0
7070F0
7071E0
E0FF80
E0FE00
E1F000
E3F040
E270E0
7C7FC0
381F00
ENDCHAR
STARTCHAR ccedilla
ENCODING 231
SWIDTH 465 0
DWIDTH 13 0
BBX 12 20 1 -6
BITMAP
03C0
0FE0
1C70
3870
7870
70E0
F0C0
E000
E000
E000
E040
E0C0
7F80
3E00
1800
0C00
1C00
3C00
7800
3000
ENDCHAR
STARTCHAR egrave
ENCODING 232
SWIDTH 471 0
DWIDTH 13 0
BBX 12 22 1 0
BITMAP
0380
0380
0380
0380
0180
0180
00C0
0000
03C0
0FE0
1C70
3870
3870
70E0
71E0
F780
FE00
E000
E040
70C0
7FC0
3F00
ENDCHAR
STARTCHAR eacute
ENCODING 233
SWIDTH 471 0
DWIDTH 13 0
BBX 12 22 1 0
BITMAP
0060
0070
00E0
00E0
01C0
0380
0600
0000
03C0
0FE0
1C70
3870
3870
70E0
71E0
F780
FE00
E000
E040
70C0
7FC0
3F00
ENDCHAR
STARTCHAR ecircumflex
ENCODING 234
SWIDTH 471 0
DWIDTH 13 0
BBX 13 21 1 0
BITMAP
0070
00F0
01F0
0730
1E38
0810
0000
03C0
0FE0
1C70
3870
3870
70E0
71E0
F780
FE00
E000
E040
70C0
7FC0
3F00
ENDCHAR
STARTCHAR edieresis
ENCODING 235
SWIDTH 471 0
DWIDTH 13 0
BBX 14 21 1 0
BITMAP
0E38
1F3C
0F3C
0E38
0000
0000
0000
03C0
0FE0
1C70
3870
38E0
71E0
7780
FE00
E000
E000
E040
70C0
7F80
3F00
ENDCHAR
STARTCHAR igrave
ENCODING 236
SWIDTH 286 0
DWIDTH 8 0
BBX 7 22 1 0
BITMAP
0C
1C
1C
1C
0C
0C
06
00
3C
3C
1C
1C
38
38
70
70
60
E0
E0
F8
F8
70
ENDCHAR
STARTCHAR iacute
ENCODING 237
SWIDTH 286 0
DWIDTH 8 0
BBX 9 22 1 0
BITMAP
0300
0380
0780
0700
0E00
1C00
1000
0000
3C00
3C00
1C00
1C00
3800
3800
7000
7000
6000
E000
E000
F800
F800
7000
ENDCHAR
STARTCHAR icircumflex
ENCODING 238
SWIDTH 286 0
DWIDTH 8 0
BBX 10 21 1 0
BITMAP
0380
0780
0F80
3980
F1C0
4080
0000
3C00
3C00
1C00
1C00
3800
3800
7000
7000
6000
E000
E000
F800
F800
7000
ENDCHAR
STARTCHAR idieresis
ENCODING 239
SWIDTH 286 0
DWIDTH 8 0
BBX 11 21 1 0
BITMAP
70E0
79E0
79E0
70C0
0000
0000
0000
3C00
3C00
1C00
1C00
3800
3800
7000
7000
6000
E000
E000
F800
F800
7000
ENDCHAR
STARTCHAR eth
ENCODING 240
SWIDTH 524 0
DWIDTH 15 0
BBX 17 23 1 0
BITMAP
002000
003000
001A00
001F00
007F80
00FC00
019C00
001C00
001C00
03DC00
0FFC00
1C3800
383800
383800
707800
707000
E0F000
E0E000
E1E000
E1C000
E38000
7F0000
3C0000
ENDCHAR
STARTCHAR ntilde
ENCODING 241
SWIDTH 561 0
DWIDTH 16 0
BBX 16 21 0 0
BITMAP
00E1
03F3
03FE
063C
0000
0000
0000
1C3C
1E7C
0EFE
0FCE
1D9C
1F1C
1E38
3C38
3870
7870
7070
F074
E07C
E038
ENDCHAR
STARTCHAR ograve
ENCODING 242
SWIDTH 514 0
DWIDTH 14 0
BBX 12 22 1 0
BITMAP
00C0
01C0
01C0
01C0
00C0
00E0
0020
0000
03C0
0FF0
1C70
3C70
7870
7070
7070
E070
E0E0
E0E0
E1C0
E3C0
7F00
3E00
ENDCHAR
STARTCHAR oacute
ENCODING 243
SWIDTH 514 0
DWIDTH 14 0
BBX 13 22 1 0
BITMAP
0038
0038
0038
0070
00E0
01C0
0100
0000
03C0
0FF0
1C70
3C70
7870
7070
7070
E070
E0E0
E0E0
E1C0
E3C0
7F00
3E00
ENDCHAR
STARTCHAR ocircumflex
ENCODING 244
SWIDTH 514 0
DWIDTH 14 0
BBX 14 21 1 0
BITMAP
0038
0078
00F8
03DC
071C
0404
0000
03C0
0FF0
1C70
3C70
7870
7070
7070
E070
E0E0
E0E0
E1C0
E3C0
7F00
3E00
ENDCHAR
STARTCHAR otilde
ENCODING 245
SWIDTH 514 0
DWIDTH 14 0
BBX 15 21 1 0
BITMAP
01C2
03E6
07FE
0478
0000
0000
0000
03C0
0FF0
1C70
3C70
7870
7070
7070
E070
E0E0
E0E0
E1C0
E3C0
7F00
3E00
ENDCHAR
STARTCHAR odieresis
ENCODING 246
SWIDTH 514 0
DWIDTH 14 0
BBX 15 21 1 0
BITMAP
078E
079E
079E
070C
0000
0000
0000
03C0
0FF0
1C70
3C70
7870
7070
7070
E070
E0E0
E0E0
E1C0
E3C0
7F00
3E00
ENDCHAR
STARTCHAR divide
ENCODING 247
SWIDTH 617 0
DWIDTH 17 0
BBX 14 14 2 3
BITMAP
0200
0780
0780
0380
0000
0000
7FFC
FFFC
0000
0000
0200
0780
0780
0700
ENDCHAR
STARTCHAR oslash
ENCODING 248
SWIDTH 514 0
DWIDTH 14 0
BBX 14 19 1 -3
BITMAP
001C
0038
03F0
0FF0
1CF0
3CB0
79F0
7170
7270
E670
E4F0
E8E0
E9C0
F3C0
7F00
7E00
6000
C000
4000
ENDCHAR
STARTCHAR ugrave
ENCODING 249
SWIDTH 553 0
DWIDTH 15 0
BBX 14 22 1 0
BITMAP
00E0
00E0
00E0
00E0
00E0
0060
0030
0000
1C0C
3C1C
1C3C
1C38
3878
3870
78F0
71E0
F160
E3E0
E6E0
FCE8
F8F8
F070
ENDCHAR
STARTCHAR uacute
ENCODING 250
SWIDTH 553 0
DWIDTH 15 0
BBX 14 22 1 0
BITMAP
0018
001C
0038
0038
0070
00C0
0180
0000
1C0C
3C1C
1C3C
1C38
3878
3870
78F0
70E0
F1E0
E3E0
E6E0
ECE8
F8F8
F070
ENDCHAR
STARTCHAR ucircumflex
ENCODING 251
SWIDTH 553 0
DWIDTH 15 0
BBX 15 21 1 0
BITMAP
0018
003C
00FC
01CC
078E
0204
0000
1C0C
3C1C
1C3C
1C38
3878
3870
78F0
70E0
F1E0
E3E0
E6E0
ECE8
F8F8
F070
ENDCHAR
STARTCHAR udieresis
ENCODING 252
SWIDTH 553 0
DWIDTH 15 0
BBX 16 21 1 0
BITMAP
038E
07CF
078F
038E
0000
0000
0000
1C0C
3C1C
1C3C
1C38
3878
3870
78F0
70E0
F1E0
E3E0
E6E0
ECE8
F8F8
F070
ENDCHAR
STARTCHAR yacute
ENCODING 253
SWIDTH 549 0
DWIDTH 15 0
BBX 14 30 1 -8
BITMAP
0030
0038
0078
0070
00E0
01C0
0100
0000
1C0C
3C1C
1C1C
1C3C
3C38
3878
38F8
70F0
71F0
E360
E6E0
ECE0
F8C0
71C0
0180
0380
0300
0700
0E00
1C00
7800
6000
ENDCHAR
STARTCHAR thorn
ENCODING 254
SWIDTH 552 0
DWIDTH 15 0
BBX 16 31 -2 -8
BITMAP
0040
0060
0060
00E0
00E0
00E0
00C0
01C0
01C0
019E
03FF
0367
03C7
0787
0707
0707
0E07
0E0E
0E1E
1C1C
1E38
1FF0
3BC0
3800
3000
7000
7000
6000
E000
E000
C000
ENDCHAR
STARTCHAR ydieresis
ENCODING 255
SWIDTH 549 0
DWIDTH 15 0
BBX 15 29 1 -8
BITMAP
070E
079E
079E
070C
0000
0000
0000
1C0C
3C1C
1C1C
1C3C
3C38
3878
38F8
70F0
71F0
E360
E6E0
ECE0
F8C0
71C0
0180
0380
0300
0700
0E00
1C00
7800
6000
ENDCHAR
STARTCHAR Amacron
ENCODING 256
SWIDTH 615 0
DWIDTH 17 0
BBX 23 25 -2 0
BITMAP
0007FE
0007FC
000000
000000
0000F0
0003F0
000770
000E60
0018E0
0038E0
0031C0
0061C0
00E3C0
00C380
01FFE0
07FFE0
0F0700
070700
060700
0E0E00
1C0E00
1C0E00
380E40
F00FC0
E00780
ENDCHAR
STARTCHAR amacron
ENCODING 257
SWIDTH 543 0
DWIDTH 15 0
BBX 14 19 1 -1
BITMAP
07FC
07FC
0000
0000
03DC
0FFC
1C3C
3838
3878
7070
7070
E0E0
E0E0
E1E0
E3E0
E2E0
7EF8
38F8
0020
ENDCHAR
STARTCHAR Abreve
ENCODING 258
SWIDTH 615 0
DWIDTH 17 0
BBX 23 27 -2 0
BITMAP
000186
00038E
0003FC
0001F0
000000
000000
0000F0
0003F0
000770
000E60
0018E0
0038E0
0031C0
0061C0
00E3C0
00C380
01FFE0
07FFE0
0F0700
070700
060700
0E0E00
1C0E00
1C0E00
380F40
F00FC0
E00780
ENDCHAR
STARTCHAR abreve
ENCODING 259
SWIDTH 543 0
DWIDTH 15 0
BBX 15 22 1 -1
BITMAP
0106
0384
038C
03F8
01F0
0000
0000
03DC
0FFC
1C3C
3838
3878
7070
7070
E0E0
E0E0
E1E0
E3E0
E2E0
7EF8
38F8
0020
ENDCHAR
STARTCHAR Aogonek
ENCODING 260
SWIDTH 615 0
DWIDTH 17 0
BBX 20 28 -2 -7
BITMAP
0000F0
0003F0
000770
000E60
0018E0
0038E0
0031C0
0061C0
00E3C0
00C380
01FFE0
07FFE0
0F0700
070700
060700
0E0E00
1C0E00
1C0E00
380F40
F00FC0
E00780
000600
000C00
001C00
001800
003900
003E00
001C00
ENDCHAR
STARTCHAR aogonek
ENCODING 261
SWIDTH 541 0
DWIDTH 15 0
BBX 14 21 1 -7
BITMAP
03DC
0FFC
1C38
3838
3878
7070
7070
E0E0
E0E0
E1E0
E3E0
E2E0
7EF8
3870
0060
00C0
0180
0380
03A0
03E0
01C0
ENDCHAR
STARTCHAR Cacute
ENCODING 262
SWIDTH 533 0
DWIDTH 15 0
BBX 18 27 1 0
BITMAP
000180
0001C0
0003C0
000780
000600
000000
007C00
00FE00
03C300
078300
0F0700
1E0700
1C0E00
3C3E00
383C00
781800
700000
700000
700000
F00000
F00000
F00000
F00000
703000
707000
3FE000
1F8000
ENDCHAR
STARTCHAR cacute
ENCODING 263
SWIDTH 468 0
DWIDTH 13 0
BBX 14 22 1 0
BITMAP
001C
001C
001C
0038
0070
00E0
0080
0000
03E0
0FE0
1C70
3870
7870
70E0
F0E0
E000
E000
E000
E040
E0C0
7F80
3E00
ENDCHAR
STARTCHAR Ccircumflex
ENCODING 264
SWIDTH 533 0
DWIDTH 15 0
BBX 18 27 1 0
BITMAP
000300
000700
000F80
003BC0
0071C0
000000
007C00
00FE00
03C300
078300
0F0700
1E0700
1C0E00
3C3E00
383C00
781800
700000
700000
700000
F00000
F00000
F00000
F00000
703000
707000
3FE000
1F8000
ENDCHAR
STARTCHAR ccircumflex
ENCODING 265
SWIDTH 468 0
DWIDTH 13 0
BBX 14 21 1 0
BITMAP
0038
0078
00F8
0398
0F1C
0408
0000
03E0
0FE0
1C70
3870
7870
70E0
F0E0
E000
E000
E000
E040
E0C0
7F80
3E00
ENDCHAR
STARTCHAR Cdotaccent
ENCODING 266
SWIDTH 533 0
DWIDTH 15 0
BBX 16 27 1 0
BITMAP
0008
001E
001E
001E
0008
0000
007C
00FE
03C3
0783
0F07
1E07
1C0E
3C3E
383C
7818
7000
7000
7000
F000
F000
F000
F000
7030
7070
3FE0
1F80
ENDCHAR
STARTCHAR cdotaccent
ENCODING 267
SWIDTH 468 0
DWIDTH 13 0
BBX 12 21 1 0
BITMAP
00E0
00F0
00F0
00E0
0000
0000
0000
03E0
0FE0
1C70
3870
7870
70E0
F0E0
E000
E000
E000
E040
E0C0
7F80
3E00
ENDCHAR
STARTCHAR Ccaron
ENCODING 268
SWIDTH 533 0
DWIDTH 15 0
BBX 19 27 1 0
BITMAP
003820
003CE0
001FC0
001F00
000800
000000
007C00
00FE00
03C300
078300
0F0700
1E0700
1C0E00
3C3E00
383C00
781800
700000
700000
700000
F00000
F00000
F00000
F00000
703000
707000
3FE000
1F8000
ENDCHAR
STARTCHAR ccaron
ENCODING 269
SWIDTH 468 0
DWIDTH 13 0
BBX 16 21 1 0
BITMAP
0383
01C7
01CE
01F8
00F0
0080
0000
03E0
0FE0
1C70
3870
7870
70E0
F0E0
E000
E000
E000
E040
E0C0
7F80
3E00
ENDCHAR
STARTCHAR Dcaron
ENCODING 270
SWIDTH 630 0
DWIDTH 18 0
BBX 18 27 1 0
BITMAP
00E080
0071C0
007F80
003E00
001000
000000
0FF000
3FFC00
3C0F00
100700
078380
070380
0F0380
0E0380
1E0380
1C0380
3C0780
380700
380F00
780E00
701C00
703C00
707800
E0F000
E3C000
7F8000
3E0000
ENDCHAR
STARTCHAR dcaron
ENCODING 271
SWIDTH 557 0
DWIDTH 16 0
BBX 22 23 1 0
BITMAP
00019C
00039C
00039C
00071C
000718
000E30
000E60
000E00
001C00
03DC00
07FC00
0E3800
1C3800
383800
707800
707000
F07000
E0F000
E0E000
E1E000
E36400
7E7C00
3C3800
ENDCHAR
STARTCHAR Dcroat
ENCODING 272
SWIDTH 630 0
DWIDTH 18 0
BBX 17 21 1 0
BITMAP
0FF000
3FFC00
380E00
000700
070380
0F0380
0E0380
1E0380
FFC380
FFC780
3C0700
380700
780E00
701E00
701C00
703800
E07000
E0E000
E3C000
7F8000
3C0000
ENDCHAR
STARTCHAR dcroat
ENCODING 273
SWIDTH 557 0
DWIDTH 16 0
BBX 18 23 1 0
BITMAP
000180
000380
000780
007FC0
00FF80
000E00
000E00
000E00
001C00
03DC00
07FC00
0E3800
1C3800
383800
707000
707000
F07000
E0F000
E0E000
E1E000
E36400
7E7C00
3C3800
ENDCHAR
STARTCHAR Emacron
ENCODING 274
SWIDTH 509 0
DWIDTH 14 0
BBX 16 25 1 0
BITMAP
01FF
01FF
0000
0000
00FC
03FE
0786
0F06
1E0E
1C1E
3C3C
3878
3810
3800
1D80
0FC0
1F00
3C00
7800
F000
E020
E060
E0E0
7FC0
3F00
ENDCHAR
STARTCHAR emacron
ENCODING 275
SWIDTH 471 0
DWIDTH 13 0
BBX 13 18 1 0
BITMAP
0FF8
1FF0
0000
0000
03C0
0FE0
1C70
3870
3870
70E0
71E0
F780
FE00
E000
E040
70C0
7FC0
3F00
ENDCHAR
STARTCHAR Ebreve
ENCODING 276
SWIDTH 509 0
DWIDTH 14 0
BBX 17 27 1 0
BITMAP
004180
00E300
00FE00
007C00
000000
000000
00FC00
03FE00
078600
0F0600
1E0E00
1C1E00
3C3C00
387800
381000
380000
1D8000
0FC000
1F0000
3C0000
780000
F00000
E02000
E06000
E0E000
7FC000
3F0000
ENDCHAR
STARTCHAR ebreve
ENCODING 277
SWIDTH 471 0
DWIDTH 13 0
BBX 13 21 1 0
BITMAP
0208
0608
0738
07F0
03E0
0000
0000
03C0
0FE0
1C70
3870
3870
70E0
71E0
F780
FE00
E000
E040
70C0
7FC0
3F00
ENDCHAR
STARTCHAR Edotaccent
ENCODING 278
SWIDTH 509 0
DWIDTH 14 0
BBX 15 27 1 0
BITMAP
0020
0078
0078
0070
0020
0000
00FC
03FE
0786
0F06
1E0E
1C1E
3C3C
3878
3810
3800
1D80
0FC0
1F00
3C00
7800
F000
E020
E060
E0E0
7FC0
3F00
ENDCHAR
STARTCHAR edotaccent
ENCODING 279
SWIDTH 471 0
DWIDTH 13 0
BBX 12 21 1 0
BITMAP
01C0
01E0
01E0
01C0
0000
0000
0000
03C0
0FE0
1C70
3870
3870
70E0
71E0
F780
FE00
E000
E040
70C0
7FC0
3F00
ENDCHAR
STARTCHAR Eogonek
ENCODING 280
SWIDTH 509 0
DWIDTH 14 0
BBX 15 28 1 -7
BITMAP
00FC
03FE
0786
0F06
1E0E
1C1E
3C3C
3878
3810
3800
1D80
0FC0
1F00
3C00
7800
F000
E020
E060
E0E0
7FC0
3F80
0E00
1C00
1800
3800
3A00
3E00
3C00
ENDCHAR
STARTCHAR eogonek
ENCODING 281
SWIDTH 471 0
DWIDTH 13 0
BBX 12 21 1 -7
BITMAP
03C0
0FE0
1C70
3870
3870
70E0
71E0
F780
FE00
E000
E040
70C0
7FC0
3F80
0600
0C00
1C00
1800
3A00
3E00
1C00
ENDCHAR
STARTCHAR Ecaron
ENCODING 282
SWIDTH 509 0
DWIDTH 14 0
BBX 17 27 1 0
BITMAP
01C180
00E380
007F00
007C00
002000
000000
00FC00
03FE00
078600
0F0600
1E0E00
1C1E00
3C3C00
387800
381000
380000
1D8000
0FC000
1F0000
3C0000
780000
F00000
E02000
E06000
E0E000
7FC000
3F0000
ENDCHAR
STARTCHAR ecaron
ENCODING 283
SWIDTH 471 0
DWIDTH 13 0
BBX 15 21 1 0
BITMAP
0706
030E
039C
03F0
01C0
0100
0000
03C0
0FE0
1C70
3870
3870
70E0
71E0
F780
FE00
E000
E040
70C0
7FC0
3F00
ENDCHAR
STARTCHAR Gcircumflex
ENCODING 284
SWIDTH 598 0
DWIDTH 17 0
BBX 18 27 1 0
BITMAP
000300
000700
000F80
003B80
0071C0
000000
003C00
00FE00
03C300
078300
0F0700
0E0700
1C0E00
3C3E00
383C00
781000
700000
700000
70FF00
70FE00
F03C00
F03000
F03000
706000
70E000
3FC000
1F0000
ENDCHAR
STARTCHAR gcircumflex
ENCODING 285
SWIDTH 526 0
DWIDTH 15 0
BBX 14 29 1 -8
BITMAP
0038
0078
00F8
03DC
071C
0404
0000
03C0
0FFC
1C3C
3838
3838
7078
7070
F070
E0F0
E1E0
E1E0
E3E0
7EC0
3DC0
01C0
0380
0380
0700
0E00
1E00
7800
7000
ENDCHAR
STARTCHAR Gbreve
ENCODING 286
SWIDTH 598 0
DWIDTH 17 0
BBX 19 27 1 0
BITMAP
001860
0038C0
003FC0
001F00
000000
000000
003C00
00FE00
03C300
078300
0F0700
0E0700
1C0E00
3C3E00
383C00
781000
700000
700000
70FF00
70FE00
F03C00
F03000
F03000
706000
70E000
3FC000
1F0000
ENDCHAR
STARTCHAR gbreve
ENCODING 287
SWIDTH 526 0
DWIDTH 15 0
BBX 15 29 1 -8
BITMAP
0182
0386
038C
03F8
01F0
0000
0000
03C0
0FFC
1C3C
3838
3838
7078
7070
F070
E0F0
E1E0
E1E0
E3E0
7EC0
3DC0
01C0
0380
0380
0700
0E00
1E00
7800
7000
ENDCHAR
STARTCHAR Gdotaccent
ENCODING 288
SWIDTH 598 0
DWIDTH 17 0
BBX 16 27 1 0
BITMAP
0008
001E
001E
001E
0008
0000
003C
00FE
03C3
0783
0F07
0E07
1C0E
3C3E
383C
7810
7000
7000
70FF
70FE
F03C
F030
F030
7060
70E0
3FC0
1F00
ENDCHAR
STARTCHAR gdotaccent
ENCODING 289
SWIDTH 526 0
DWIDTH 15 0
BBX 14 29 1 -8
BITMAP
0070
00F0
00F0
0060
0000
0000
0000
03C0
0FFC
1C3C
3838
3838
7078
7070
F070
E0F0
E1E0
E1E0
E3E0
7EC0
3DC0
01C0
0380
0380
0700
0E00
1E00
7800
7000
ENDCHAR
STARTCHAR Gcommaaccent
ENCODING 290
SWIDTH 598 0
DWIDTH 17 0
BBX 16 29 1 -8
BITMAP
003C
00FE
03C3
0783
0F07
0E07
1C0F
3C1E
383E
783C
7000
7000
7000
70FF
F0FE
F03C
F030
7070
7060
3FC0
1F00
0000
1800
3C00
3C00
1800
3800
3000
6000
ENDCHAR
STARTCHAR gcommaaccent
ENCODING 291
SWIDTH 526 0
DWIDTH 15 0
BBX 14 30 1 -8
BITMAP
0018
0030
0060
00E0
00F0
0060
0000
0000
03C0
0FFC
1C3C
3838
3838
7078
7070
F070
E0F0
E1E0
E1E0
E3E0
7EC0
3DC0
01C0
0380
0380
0700
0E00
1E00
7800
7000
ENDCHAR
STARTCHAR Hcircumflex
ENCODING 292
SWIDTH 668 0
DWIDTH 19 0
BBX 21 27 -1 0
BITMAP
000100
000380
000F80
003DC0
0070E0
000000
0FC030
0FC038
05C078
01C070
01C070
01C070
03C0E0
0380E0
0380E0
07FFF0
1FFFE0
0F0380
0F0380
0E0380
0E0700
1C0700
1C0700
380E00
700E40
F00F80
C00700
ENDCHAR
STARTCHAR hcircumflex
ENCODING 293
SWIDTH 555 0
DWIDTH 16 0
BBX 14 27 0 0
BITMAP
0060
00E0
01E0
0770
1E70
1C30
0300
0380
0380
0380
0780
0700
0700
073C
0E7C
0EFC
0FDC
1D9C
1F1C
1E38
3C38
3870
7870
7070
F0F4
E07C
E078
ENDCHAR
STARTCHAR Hbar
ENCODING 294
SWIDTH 668 0
DWIDTH 19 0
BBX 23 21 -1 0
BITMAP
0F8030
0FC038
05C038
01C070
01C070
0FFFFE
1FFFFC
0380E0
0380E0
03FFF0
0FFFE0
1F0380
070380
0E0380
0E0700
1C0700
1C0700
380E00
700E40
F00F80
C00700
ENDCHAR
STARTCHAR hbar
ENCODING 295
SWIDTH 555 0
DWIDTH 16 0
BBX 14 23 0 0
BITMAP
0180
0380
0380
07F0
1FF0
0380
0700
0700
0700
063C
0E7C
0EFC
0CDC
1D9C
1F1C
1E38
3C38
3870
7870
7070
F0F4
E07C
E078
ENDCHAR
STARTCHAR Itilde
ENCODING 296
SWIDTH 327 0
DWIDTH 9 0
BBX 14 27 0 0
BITMAP
0384
07CC
0FF8
08F0
0000
0000
0F80
1FC0
09C0
01C0
0380
0380
0380
0380
0780
0700
0700
0F00
0E00
0E00
1C00
1C00
3800
3800
7000
E000
C000
ENDCHAR
STARTCHAR itilde
ENCODING 297
SWIDTH 286 0
DWIDTH 8 0
BBX 11 21 1 0
BITMAP
1C20
3E60
7FC0
4780
0000
0000
0000
3C00
3C00
1C00
1C00
3800
3800
7000
7000
6000
E000
E000
F800
F800
7000
ENDCHAR
STARTCHAR Imacron
ENCODING 298
SWIDTH 327 0
DWIDTH 9 0
BBX 14 25 0 0
BITMAP
0FFC
0FF8
0000
0000
0F80
1FC0
09C0
01C0
0380
0380
0380
0380
0780
0700
0700
0F00
0E00
0E00
1C00
1C00
3800
3800
7000
E000
C000
ENDCHAR
STARTCHAR imacron
ENCODING 299
SWIDTH 286 0
DWIDTH 8 0
BBX 10 18 1 0
BITMAP
7FC0
FF80
0000
0000
3C00
3C00
1C00
1C00
3800
3800
7000
7000
6000
E000
E000
F800
F800
7000
ENDCHAR
STARTCHAR Ibreve
ENCODING 300
SWIDTH 327 0
DWIDTH 9 0
BBX 14 27 0 0
BITMAP
0304
070C
0718
03F0
01E0
0000
0F80
1FC0
09C0
01C0
0380
0380
0380
0380
0780
0700
0700
0F00
0E00
0E00
1C00
1C00
3800
3800
7000
E000
C000
ENDCHAR
STARTCHAR ibreve
ENCODING 301
SWIDTH 286 0
DWIDTH 8 0
BBX 11 21 1 0
BITMAP
1060
3840
38C0
3F80
1F00
0000
0000
3C00
3C00
1C00
1C00
3800
3800
7000
7000
6000
E000
E000
F800
F800
7000
ENDCHAR
STARTCHAR Iogonek
ENCODING 302
SWIDTH 327 0
DWIDTH 9 0
BBX 14 27 -4 -6
BITMAP
00F8
01FC
009C
001C
0038
0038
0038
0038
0070
0070
0070
00E0
00E0
00E0
01C0
01C0
0380
0780
0700
0E00
1C00
3000
7000
6000
E000
F800
F000
ENDCHAR
STARTCHAR iogonek
ENCODING 303
SWIDTH 297 0
DWIDTH 8 0
BBX 10 28 -1 -7
BITMAP
01C0
03C0
03C0
0180
0000
0000
0000
0700
0F00
0700
0700
0600
0E00
0E00
1C00
1C00
1800
3800
3800
3E00
3E00
1800
3000
7000
6000
E800
F800
7000
ENDCHAR
STARTCHAR Idotaccent
ENCODING 304
SWIDTH 327 0
DWIDTH 9 0
BBX 10 27 0 0
BITMAP
0100
03C0
03C0
03C0
0100
0000
0F80
1FC0
09C0
01C0
0380
0380
0380
0380
0780
0700
0700
0F00
0E00
0E00
1C00
1C00
3800
3800
7000
E000
C000
ENDCHAR
STARTCHAR dotlessi
ENCODING 305
SWIDTH 286 0
DWIDTH 8 0
BBX 6 14 1 0
BITMAP
3C
3C
1C
1C
38
38
70
70
60
E0
E0
F8
F8
70
ENDCHAR
STARTCHAR IJ
ENCODING 306
SWIDTH 720 0
DWIDTH 20 0
BBX 21 29 0 -8
BITMAP
0F83F0
1FCFF8
09DE38
01DC38
038878
038078
038070
038070
0780F0
0700F0
0700E0
0F01E0
0E01E0
0E01C0
1C03C0
1C0380
380780
380700
700700
E00E00
C01E00
001C00
003C00
003800
007000
00E000
01C000
078000
0F0000
ENDCHAR
STARTCHAR ij
ENCODING 307
SWIDTH 567 0
DWIDTH 16 0
BBX 15 29 1 -8
BITMAP
070E
0F1E
0F1E
060C
0000
0000
0000
3C3C
3C3C
1C3C
1C3C
3838
3838
7038
7038
6070
E070
E070
F860
F8E0
70E0
01C0
01C0
0380
0380
0700
0E00
1C00
3800
ENDCHAR
STARTCHAR Jcircumflex
ENCODING 308
SWIDTH 393 0
DWIDTH 11 0
BBX 20 34 -5 -8
BITMAP
0001C0
0003C0
0007E0
001CF0
001020
003F00
00FF80
01E380
03C380
008780
000700
000700
000700
000F00
000E00
000E00
001E00
001C00
001C00
003C00
003800
007800
007000
00F000
00E000
01E000
01C000
038000
078000
070000
0E0000
1C0000
780000
E00000
ENDCHAR
STARTCHAR jcircumflex
ENCODING 309
SWIDTH 282 0
DWIDTH 8 0
BBX 16 29 -5 -8
BITMAP
000C
001C
003C
00EE
01CE
0307
0000
00F0
00F0
0070
0070
00E0
00E0
00E0
00E0
01C0
01C0
01C0
01C0
0380
0380
0700
0700
0E00
0E00
1C00
3800
7000
E000
ENDCHAR
STARTCHAR Kcommaaccent
ENCODING 310
SWIDTH 616 0
DWIDTH 17 0
BBX 19 29 -1 -8
BITMAP
0F81C0
1FC0E0
09C0E0
01C0E0
03C1E0
0381C0
0383C0
038780
078F00
071C00
073800
0F6000
0FC000
0EE000
1E7000
1C7800
3C3C00
381C00
701E00
F00FC0
C00780
000000
020000
070000
070000
070000
070000
0E0000
0C0000
ENDCHAR
STARTCHAR kcommaaccent
ENCODING 311
SWIDTH 497 0
DWIDTH 14 0
BBX 14 30 0 -8
BITMAP
0180
0380
0380
0380
0380
0380
0700
0700
073C
0E1C
0E1C
0C3C
1C78
1DE0
1F80
3F00
3F00
7380
7380
E3E8
E1F8
C0F0
0000
0800
3C00
1C00
1C00
1800
3800
2000
ENDCHAR
STARTCHAR kgreenlandic
ENCODING 312
SWIDTH 497 0
DWIDTH 14 0
BBX 14 14 0 0
BITMAP
1C3C
1E1C
0E1C
0E3C
1C78
1CF0
1BC0
3F00
3F00
7B80
7380
F1C8
E1F8
E070
ENDCHAR
STARTCHAR Lacute
ENCODING 313
SWIDTH 517 0
DWIDTH 15 0
BBX 18 27 -1 0
BITMAP
0001C0
0001C0
0003C0
000380
000600
000000
001E00
007F00
007180
00E180
01C380
01C380
038700
038F00
07BE00
073C00
070800
0E0000
0E0000
1E0000
1C0000
1C0000
380000
300000
7FF800
FFFC00
780C00
ENDCHAR
STARTCHAR lacute
ENCODING 314
SWIDTH 279 0
DWIDTH 8 0
BBX 12 27 1 0
BITMAP
0060
0070
00E0
01C0
0380
0000
0600
0700
0700
0E00
0E00
0E00
0C00
1C00
1C00
3800
3800
3800
7000
7000
7000
E000
E000
E000
E800
F800
7000
ENDCHAR
STARTCHAR Lcommaaccent
ENCODING 315
SWIDTH 517 0
DWIDTH 15 0
BBX 17 29 -1 -8
BITMAP
001E00
007F00
007180
00E180
01C380
01C380
038700
038F00
07BE00
073C00
070800
0E0000
0E0000
1E0000
1C0000
1C0000
380000
300000
7FF800
FFFC00
780C00
000000
080000
1C0000
1C0000
1C0000
1C0000
380000
300000
ENDCHAR
STARTCHAR lcommaaccent
ENCODING 316
SWIDTH 279 0
DWIDTH 8 0
BBX 9 30 0 -8
BITMAP
0300
0380
0380
0380
0700
0700
0700
0600
0E00
0E00
0C00
1C00
1C00
1800
3800
3800
7000
7000
7000
7000
7C00
3800
0000
2000
7000
7000
7000
7000
6000
C000
ENDCHAR
STARTCHAR Lcaron
ENCODING 317
SWIDTH 517 0
DWIDTH 15 0
BBX 22 27 -1 0
BITMAP
000008
00001C
00001C
00001C
00001C
000018
001E30
007F60
007180
00E180
01C380
01C380
038700
038F00
07BE00
073C00
070800
0E0000
0E0000
1E0000
1C0000
1C0000
380000
300000
7FF800
FFFC00
780C00
ENDCHAR
STARTCHAR lcaron
ENCODING 318
SWIDTH 467 0
DWIDTH 13 0
BBX 14 23 1 0
BITMAP
060C
071C
070C
070C
0E1C
0E18
0E30
0E00
1C00
1C00
1C00
3800
3800
3800
7000
7000
7000
E000
E000
E000
E800
F800
7000
ENDCHAR
STARTCHAR Ldot
ENCODING 319
SWIDTH 668 0
DWIDTH 19 0
BBX 20 21 -1 0
BITMAP
001E00
007F00
007180
00E180
01C380
01C380
038700
038F00
07BE00
073C00
070860
0E00F0
0E00F0
1E00E0
1C0000
1C0000
380000
300000
7FF800
FFFC00
780C00
ENDCHAR
STARTCHAR ldot
ENCODING 320
SWIDTH 489 0
DWIDTH 14 0
BBX 12 23 1 0
BITMAP
0600
0700
0700
0700
0E00
0E00
0E00
0E00
1C00
1C00
1C00
3840
38F0
38F0
70F0
7060
7000
E000
E000
E000
E800
F800
7000
ENDCHAR
STARTCHAR Lslash
ENCODING 321
SWIDTH 517 0
DWIDTH 15 0
BBX 17 21 -1 0
BITMAP
001E00
007F00
007180
00E180
01C380
01C380
038700
038F00
07BE00
071C00
070000
0FC000
3FE000
7C0000
5C0000
180000
380000
307000
7FF800
FFFC00
780C00
ENDCHAR
STARTCHAR lslash
ENCODING 322
SWIDTH 279 0
DWIDTH 8 0
BBX 12 23 1 0
BITMAP
0C00
1FF0
0780
0700
0E00
0E00
0E00
0C00
1C00
1C00
1C00
3800
3800
3800
7000
7000
7000
E000
E000
E000
E800
F800
7000
ENDCHAR
STARTCHAR Nacute
ENCODING 323
SWIDTH 708 0
DWIDTH 20 0
BBX 21 27 1 0
BITMAP
000070
000070
0000F0
0000E0
000180
000000
00E060
01E0F0
03E078
07E078
06E078
0CE070
0CE070
18E070
18E0E0
38E0E0
30E0C0
70E180
70E180
60F300
E0F300
E07600
C07600
C07C00
C03C00
C01C00
C00C00
ENDCHAR
STARTCHAR nacute
ENCODING 324
SWIDTH 561 0
DWIDTH 16 0
BBX 15 22 0 0
BITMAP
000C
000E
001C
001C
0038
0070
0040
0000
1C3C
1E7C
0EFE
0FCE
1D9C
1F1C
1E38
3C38
3870
7870
7070
F074
E07C
E038
ENDCHAR
STARTCHAR Ncommaaccent
ENCODING 325
SWIDTH 708 0
DWIDTH 20 0
BBX 21 29 1 -8
BITMAP
00E060
01E0F0
03E078
07E078
06E078
0CE070
0CE070
18E070
18E0E0
38E0E0
30E0C0
70E180
70E180
60F300
E0F300
E07600
C07600
C07C00
C03C00
C01C00
C01C00
000000
010000
038000
038000
038000
030000
070000
040000
ENDCHAR
STARTCHAR ncommaaccent
ENCODING 326
SWIDTH 561 0
DWIDTH 16 0
BBX 15 22 0 -8
BITMAP
1C3C
1E7C
0EFE
0FCE
1D9C
1F1C
1E38
3C38
3870
7870
7070
F074
E07C
E038
0000
0C00
1C00
1C00
0C00
1C00
1800
3000
ENDCHAR
STARTCHAR Ncaron
ENCODING 327
SWIDTH 708 0
DWIDTH 20 0
BBX 21 27 1 0
BITMAP
000E08
000F38
0007F0
0007C0
000200
000000
00E060
01E0F0
03E078
07E078
06E078
0CE070
0CE070
18E070
18E0E0
38E0E0
30E0C0
70E180
70E180
60F300
E0F300
E07600
C07600
C07C00
C03C00
C01C00
C00C00
ENDCHAR
STARTCHAR ncaron
ENCODING 328
SWIDTH 561 0
DWIDTH 16 0
BBX 17 21 0 0
BITMAP
01C180
00E380
00E700
00FE00
007800
004000
000000
1C3C00
1E7C00
0EFE00
0FCE00
1D9C00
1F1C00
1E3800
3C3800
387000
787000
707000
F07400
E07C00
E03800
ENDCHAR
STARTCHAR Eng
ENCODING 330
SWIDTH 698 0
DWIDTH 20 0
BBX 21 29 0 -8
BITMAP
007070
00F078
01E038
03E038
07E038
06E038
0EE038
0CE038
1CE070
18E070
38F070
387060
3070E0
7070E0
7078C0
6079C0
603980
E03F80
E01F00
E01F00
601E00
001C00
003C00
007800
007000
00E000
01C000
078000
0E0000
ENDCHAR
STARTCHAR eng
ENCODING 331
SWIDTH 561 0
DWIDTH 16 0
BBX 15 22 0 -8
BITMAP
1C3C
1E7C
0EFE
0FCE
1D9C
1F1C
1E1C
3C1C
3838
7838
7030
F070
E070
E0E0
00E0
01C0
0380
0380
0700
0E00
1C00
3800
ENDCHAR
STARTCHAR Omacron
ENCODING 332
SWIDTH 655 0
DWIDTH 18 0
BBX 18 25 2 0
BITMAP
007FC0
00FF80
000000
000000
007C00
01FE00
078700
0F0300
0E0380
1C0380
3C0380
380380
780780
700700
F00700
E00F00
E00E00
E01E00
E01C00
E03C00
E07800
E0F000
E1E000
7FC000
1F0000
ENDCHAR
STARTCHAR omacron
ENCODING 333
SWIDTH 514 0
DWIDTH 14 0
BBX 15 18 1 0
BITMAP
07FE
07FC
0000
0000
03C0
0FF0
1C70
3C70
7870
7070
7070
E070
E0E0
E0E0
E1C0
E3C0
7F00
3E00
ENDCHAR
STARTCHAR Obreve
ENCODING 334
SWIDTH 655 0
DWIDTH 18 0
BBX 18 27 2 0
BITMAP
003040
0071C0
003F80
003F00
000000
000000
007C00
01FE00
078700
0F0300
0E0380
1C0380
3C0380
380380
780780
700700
F00700
E00F00
E00E00
E01E00
E01C00
E03C00
E07800
E0F000
E1E000
7FC000
1F0000
ENDCHAR
STARTCHAR obreve
ENCODING 335
SWIDTH 514 0
DWIDTH 14 0
BBX 15 21 1 0
BITMAP
0182
0386
038C
01F8
01F0
0000
0000
03C0
0FF0
1C70
3C70
7870
7070
7070
E070
E0E0
E0E0
E1C0
E3C0
7F00
3E00
ENDCHAR
STARTCHAR Ohungarumlaut
ENCODING 336
SWIDTH 655 0
DWIDTH 18 0
BBX 19 27 2 0
BITMAP
001CC0
001CE0
0018C0
003180
006300
000000
007C00
01FE00
078700
0F0300
0E0380
1C0380
3C0380
380380
780780
700700
F00700
E00F00
E00E00
E01E00
E01C00
E03C00
E07800
E0F000
E1E000
7FC000
1F0000
ENDCHAR
STARTCHAR ohungarumlaut
ENCODING 337
SWIDTH 514 0
DWIDTH 14 0
BBX 15 22 1 0
BITMAP
00C6
00C6
01CE
018C
0318
0630
0460
0000
03C0
0FF0
1C70
3C70
7870
7070
7070
E070
E0E0
E0E0
E1C0
E3C0
7F00
3E00
ENDCHAR
STARTCHAR OE
ENCODING 338
SWIDTH 900 0
DWIDTH 25 0
BBX 26 21 3 0
BITMAP
007E3F00
01FFFF80
0383E0C0
0703C1C0
0F0781C0
1E070780
1C070F80
38070F00
78070400
78070000
7007E000
F001F000
E007C000
E00F0000
E01E0000
E01C0000
E03C0800
E07C1C00
70FC3800
3FDFF000
1F07C000
ENDCHAR
STARTCHAR oe
ENCODING 339
SWIDTH 777 0
DWIDTH 22 0
BBX 20 14 2 0
BITMAP
07C3C0
0FE7E0
1C7C70
387C70
707870
7078E0
E0F1E0
E0F7C0
E0FF00
E1E000
E1E040
E3F0C0
FF7FC0
3E3F00
ENDCHAR
STARTCHAR Racute
ENCODING 340
SWIDTH 623 0
DWIDTH 17 0
BBX 19 27 -1 0
BITMAP
000180
0001C0
000380
000780
000E00
000000
00FE00
07FF80
0F01C0
0680C0
00C0C0
01C1E0
01C1C0
0381C0
038380
078780
071E00
07FC00
0FF000
0E7000
0E7000
1C3800
1C3C00
381C00
781E00
700FC0
E00780
ENDCHAR
STARTCHAR racute
ENCODING 341
SWIDTH 407 0
DWIDTH 11 0
BBX 13 22 0 0
BITMAP
0038
0038
0038
0070
00E0
01C0
0100
0000
1C30
1EF8
1EF8
1DB0
1F00
1E00
1C00
3C00
3800
3800
7000
7000
E000
6000
ENDCHAR
STARTCHAR Rcommaaccent
ENCODING 342
SWIDTH 623 0
DWIDTH 17 0
BBX 19 29 -1 -8
BITMAP
00FE00
07FF80
0F01C0
0680C0
00C0C0
01C1E0
01C1C0
0381C0
038380
078780
071E00
07FC00
0FF000
0E7000
0E7000
1C3800
1C3C00
381C00
781E00
700FC0
E00780
000000
020000
0F0000
070000
070000
060000
0C0000
180000
ENDCHAR
STARTCHAR rcommaaccent
ENCODING 343
SWIDTH 407 0
DWIDTH 11 0
BBX 15 22 -2 -8
BITMAP
070C
07BE
03BE
076C
07C0
0780
0700
0F00
0E00
0E00
1C00
1C00
3800
1800
0000
1000
7800
3800
3000
3000
6000
C000
ENDCHAR
STARTCHAR Rcaron
ENCODING 344
SWIDTH 623 0
DWIDTH 17 0
BBX 19 27 -1 0
BITMAP
007060
0038E0
001FC0
001F00
000800
000000
00FE00
07FF80
0F01C0
0680C0
00C0C0
01C1E0
01C1C0
0381C0
038380
078780
071E00
07FC00
0FF000
0E7000
0E7000
1C3800
1C3C00
381C00
781E00
700FC0
E00780
ENDCHAR
STARTCHAR rcaron
ENCODING 345
SWIDTH 407 0
DWIDTH 11 0
BBX 15 21 0 0
BITMAP
0302
038E
019C
01F8
01E0
0080
0000
1C30
1EF8
1EF8
1DB0
1F00
1E00
1C00
3C00
3800
3800
7000
7000
E000
6000
ENDCHAR
STARTCHAR Sacute
ENCODING 346
SWIDTH 474 0
DWIDTH 13 0
BBX 16 27 1 0
BITMAP
0006
0007
000E
001C
0038
0000
01F0
07F8
0E0C
1C0C
1C0C
381C
381C
383C
3C78
3C70
1E00
1E00
0F00
0780
0780
4380
C380
C180
E300
FF00
7C00
ENDCHAR
STARTCHAR sacute
ENCODING 347
SWIDTH 423 0
DWIDTH 12 0
BBX 13 22 0 0
BITMAP
0018
0038
0038
0070
00E0
01C0
0100
0000
07C0
0FE0
1C70
1C70
1C60
1C00
1E00
0F00
0780
0780
6380
E380
7F00
3C00
ENDCHAR
STARTCHAR Scircumflex
ENCODING 348
SWIDTH 474 0
DWIDTH 13 0
BBX 16 27 1 0
BITMAP
000C
001C
003E
00EE
01C7
0000
01F0
07F8
0E0C
1C0C
1C0C
381C
381C
383C
3C78
3C70
1E00
1E00
0F00
0780
0780
4380
C380
C180
E300
FF00
7C00
ENDCHAR
STARTCHAR scircumflex
ENCODING 349
SWIDTH 423 0
DWIDTH 12 0
BBX 14 21 0 0
BITMAP
0030
0078
01F8
0398
0F1C
0408
0000
07C0
0FE0
1C70
1C70
1C60
1C00
1E00
0F00
0780
0780
6380
E380
7F00
3C00
ENDCHAR
STARTCHAR Scedilla
ENCODING 350
SWIDTH 474 0
DWIDTH 13 0
BBX 14 27 1 -6
BITMAP
01F0
07F8
0E0C
1C0C
1C0C
381C
381C
383C
3C78
3C30
1E00
1E00
0F00
0780
0380
C380
C180
C380
E300
FE00
3C00
1800
1800
1800
3800
7800
7000
ENDCHAR
STARTCHAR scedilla
ENCODING 351
SWIDTH 423 0
DWIDTH 12 0
BBX 12 20 0 -6
BITMAP
07C0
0FE0
1C70
1C70
1C60
1C00
1E00
0F00
0700
6780
E380
E380
7F00
3C00
1800
1800
1800
3800
7800
7000
ENDCHAR
STARTCHAR Scaron
ENCODING 352
SWIDTH 474 0
DWIDTH 13 0
BBX 17 27 1 0
BITMAP
01C180
00E380
007F00
007C00
002000
000000
01F000
07F800
0E0C00
1C0C00
1C0C00
381C00
381C00
383C00
3C7800
3C7000
1E0000
1E0000
0F0000
078000
078000
438000
C38000
C18000
E30000
FF0000
7C0000
ENDCHAR
STARTCHAR scaron
ENCODING 353
SWIDTH 423 0
DWIDTH 12 0
BBX 16 21 0 0
BITMAP
0383
0187
01CE
01F8
00E0
0080
0000
07C0
0FE0
1C70
1C70
1C60
1C00
1E00
0F00
0780
0780
6380
E380
7F00
3C00
ENDCHAR
STARTCHAR Tcommaaccent
ENCODING 354
SWIDTH 471 0
DWIDTH 13 0
BBX 17 29 1 -8
BITMAP
1F0080
3FF180
7FFF00
70FE00
60E000
61C000
01C000
01C000
038000
038000
038000
078000
070000
070000
0E0000
0E0000
0E0000
1C0000
380000
780000
600000
000000
100000
780000
380000
380000
300000
600000
C00000
ENDCHAR
STARTCHAR tcommaaccent
ENCODING 355
SWIDTH 358 0
DWIDTH 10 0
BBX 11 25 0 -8
BITMAP
0380
0700
0700
3FE0
0E80
1C00
1C00
1C00
3800
3800
3800
3000
7000
7080
7B00
3F00
1C00
0000
3000
7800
7800
3000
7000
6000
C000
ENDCHAR
STARTCHAR Tcaron
ENCODING 356
SWIDTH 471 0
DWIDTH 13 0
BBX 17 27 2 0
BITMAP
01C100
00E380
00FF00
007C00
002000
000000
3F8300
FFFE00
FFFE00
E1C000
C1C000
038000
038000
038000
070000
070000
070000
0E0000
0E0000
0E0000
1C0000
1C0000
180000
380000
700000
E00000
C00000
ENDCHAR
STARTCHAR tcaron
ENCODING 357
SWIDTH 497 0
DWIDTH 14 0
BBX 14 23 3 0
BITMAP
0018
003C
001C
0018
0018
0E30
0E60
1C00
1C00
FF80
3C00
7000
7000
7000
E000
E000
E000
E000
C000
C200
EE00
FC00
7800
ENDCHAR
STARTCHAR Tbar
ENCODING 358
SWIDTH 471 0
DWIDTH 13 0
BBX 16 21 2 0
BITMAP
3F83
7FFE
FFFE
E1C0
C1C0
0380
0380
0780
0700
7FC0
FFC0
0E00
0E00
0E00
1C00
1C00
3800
3800
7000
E000
C000
ENDCHAR
STARTCHAR tbar
ENCODING 359
SWIDTH 358 0
DWIDTH 10 0
BBX 10 18 1 0
BITMAP
0600
0700
0E00
0E00
7FC0
1D00
3800
3800
3800
FF80
FF00
7000
6000
6000
E100
F600
7E00
3800
ENDCHAR
STARTCHAR Utilde
ENCODING 360
SWIDTH 624 0
DWIDTH 17 0
BBX 18 27 1 0
BITMAP
003840
00FCC0
00FF80
018F00
000000
000000
0700C0
0F01C0
0701C0
070380
070380
0E0780
0E0700
1E0F00
1C0F00
3C1E00
381E00
383C00
707C00
707C00
E0DC00
E19800
E1B800
E33800
E63900
FC3F00
701E00
ENDCHAR
STARTCHAR utilde
ENCODING 361
SWIDTH 553 0
DWIDTH 15 0
BBX 16 21 1 0
BITMAP
00E1
03F3
03FE
063C
0000
0000
0000
1C0C
3C1C
1C3C
1C38
3878
3870
78F0
70E0
F1E0
E3E0
E6E0
ECE8
F8F8
F070
ENDCHAR
STARTCHAR Umacron
ENCODING 362
SWIDTH 624 0
DWIDTH 17 0
BBX 18 25 1 0
BITMAP
00FF80
01FF80
000000
000000
0700C0
0F01C0
0701C0
070380
070380
0E0780
0E0700
1E0F00
1C0F00
3C1E00
381E00
383C00
707C00
707C00
E0DC00
E19800
E1B800
E33800
E63900
FC3F00
701E00
ENDCHAR
STARTCHAR umacron
ENCODING 363
SWIDTH 553 0
DWIDTH 15 0
BBX 15 18 1 0
BITMAP
03FE
07FC
0000
0000
1C0C
3C1C
1C3C
1C38
3878
3870
78F0
70E0
F1E0
E3E0
E6E0
ECE8
F8F8
F070
ENDCHAR
STARTCHAR Ubreve
ENCODING 364
SWIDTH 624 0
DWIDTH 17 0
BBX 18 27 1 0
BITMAP
006080
007180
007F00
003E00
000000
000000
0700C0
0F01C0
0701C0
070380
070380
0E0780
0E0700
1E0F00
1C0F00
3C1E00
381E00
383C00
707C00
707C00
E0DC00
E19800
E1B800
E33800
E63900
FC3F00
701E00
ENDCHAR
STARTCHAR ubreve
ENCODING 365
SWIDTH 553 0
DWIDTH 15 0
BBX 15 21 1 0
BITMAP
0182
0182
01CE
01FC
00F8
0000
0000
1C0C
3C1C
1C3C
1C38
3878
3870
78F0
70E0
F1E0
E3E0
E6E0
ECE8
F8F8
F070
ENDCHAR
STARTCHAR Uring
ENCODING 366
SWIDTH 624 0
DWIDTH 17 0
BBX 18 27 1 0
BITMAP
000E00
003F00
003380
007380
006300
007700
073EC0
0F09C0
0701C0
070380
070380
0E0780
0E0700
1E0F00
1C0F00
3C1E00
381E00
383C00
707C00
707C00
E0DC00
E1D800
E1B800
E33800
E63900
FC3F00
701E00
ENDCHAR
STARTCHAR uring
ENCODING 367
SWIDTH 553 0
DWIDTH 15 0
BBX 14 22 1 0
BITMAP
0078
00FC
01CC
018C
019C
01F8
0020
0000
1C0C
3C1C
1C3C
1C38
3878
3870
78F0
70E0
F1E0
E3E0
E6E0
ECE8
F8F8
F070
ENDCHAR
STARTCHAR Uhungarumlaut
ENCODING 368
SWIDTH 624 0
DWIDTH 17 0
BBX 18 27 1 0
BITMAP
0018C0
0019C0
0039C0
007380
00C600
000000
0700C0
0F01C0
0701C0
070380
070380
0E0780
0E0700
1E0F00
1C0F00
3C1E00
381E00
383C00
707C00
707C00
E0DC00
E19800
E1B800
E33800
E63900
FC3F00
701E00
ENDCHAR
STARTCHAR uhungarumlaut
ENCODING 369
SWIDTH 553 0
DWIDTH 15 0
BBX 16 22 1 0
BITMAP
0063
00E7
00E7
01CE
019C
0338
0420
0000
1C0C
3C1C
1C3C
1C38
3878
3870
78F0
70E0
F1E0
E3E0
E6E0
ECE8
F8F8
F070
ENDCHAR
STARTCHAR Uogonek
ENCODING 370
SWIDTH 684 0
DWIDTH 19 0
BBX 19 28 1 -7
BITMAP
078060
0780E0
0380E0
0381C0
0781C0
070380
070780
0E0780
0E0F00
1C0F00
1C1F00
3C1E00
383E00
383E00
706C00
70DC00
70DC00
E19C00
F31C80
7E1F80
780F00
000C00
001800
003800
003000
007200
003C00
003800
ENDCHAR
STARTCHAR uogonek
ENCODING 371
SWIDTH 553 0
DWIDTH 15 0
BBX 14 21 1 -7
BITMAP
1C0C
3C1C
1C3C
1C38
3878
3870
78F0
70E0
F1E0
E3E0
E6E0
ECE8
F8F8
F0F0
0060
00C0
0180
0380
03A0
03E0
01C0
ENDCHAR
STARTCHAR Wcircumflex
ENCODING 372
SWIDTH 941 0
DWIDTH 26 0
BBX 26 27 2 0
BITMAP
00004000
0000E000
0003E000
000F7000
001C3800
00000000
3E000380
7F0003C0
FF0003C0
670003C0
070003C0
0F0381C0
0E0781C0
1E1F03C0
1C3E0380
3C3E0380
387C0380
78FC0700
71DC0700
73B80E00
E3380E00
E6381C00
EE383800
EC383000
F838E000
F01FC000
700F0000
ENDCHAR
STARTCHAR wcircumflex
ENCODING 373
SWIDTH 750 0
DWIDTH 21 0
BBX 20 21 1 0
BITMAP
000600
001E00
003F00
007700
01C380
008100
000000
3C00E0
3C18E0
1C38F0
1C7870
387060
38F060
38E0E0
71E0C0
73E0C0
66C180
ECC380
F8E700
F0FC00
E07800
ENDCHAR
STARTCHAR Ycircumflex
ENCODING 374
SWIDTH 580 0
DWIDTH 16 0
BBX 19 34 0 -8
BITMAP
000700
000F00
003F80
0073C0
004080
078060
0780E0
0380E0
0381C0
0781C0
0703C0
070380
0E0780
0E0700
1E0F00
1C1F00
3C1E00
383E00
383E00
706C00
70DC00
70DC00
F1B800
733800
7E7000
387000
00E000
00E000
01C000
038000
070000
0E0000
3C0000
780000
ENDCHAR
STARTCHAR ycircumflex
ENCODING 375
SWIDTH 549 0
DWIDTH 15 0
BBX 14 29 1 -8
BITMAP
0038
0078
00F8
0398
0F1C
0404
0000
1C0C
3C1C
1C1C
1C3C
3C38
3878
38F8
70F0
71F0
E360
E6E0
ECE0
F8C0
71C0
0180
0380
0300
0700
0E00
1C00
7800
6000
ENDCHAR
STARTCHAR Ydieresis
ENCODING 376
SWIDTH 580 0
DWIDTH 16 0
BBX 19 34 0 -8
BITMAP
0071C0
00F1E0
00F1E0
0071C0
000000
078060
0780E0
0380E0
0381C0
0781C0
0703C0
070380
0E0780
0E0700
1E0F00
1C1F00
3C1E00
383E00
383E00
706C00
70DC00
70DC00
F1B800
733800
7E7000
387000
00E000
00E000
01C000
038000
070000
0E0000
3C0000
780000
ENDCHAR
STARTCHAR Zacute
ENCODING 377
SWIDTH 501 0
DWIDTH 14 0
BBX 17 27 0 0
BITMAP
000600
000700
000E00
001C00
003800
000000
080F00
0FFF00
0FF780
078F00
001E00
003E00
003C00
007800
00F000
01E000
03C000
078000
0F0000
1E0000
3C0000
380000
700000
E1F000
FFF800
FFF800
F01800
ENDCHAR
STARTCHAR zacute
ENCODING 378
SWIDTH 430 0
DWIDTH 12 0
BBX 14 22 0 0
BITMAP
0018
001C
0038
0038
0070
00E0
0180
0000
1C30
1FF8
0778
00F0
01E0
03C0
0780
0E00
1C00
3800
7000
EF80
FFC0
60C0
ENDCHAR
STARTCHAR Zdotaccent
ENCODING 379
SWIDTH 501 0
DWIDTH 14 0
BBX 17 27 0 0
BITMAP
002000
007800
007800
007000
002000
000000
080F00
0FFF00
0FF780
078F00
001E00
003E00
003C00
007800
00F000
01E000
03C000
078000
0F0000
1E0000
3C0000
380000
700000
E0E000
EFF000
FFF800
F01800
ENDCHAR
STARTCHAR zdotaccent
ENCODING 380
SWIDTH 430 0
DWIDTH 12 0
BBX 13 21 0 0
BITMAP
00E0
01E0
01E0
01C0
0000
0000
0000
1C30
1FF8
0778
00F0
01E0
03C0
0780
0E00
1C00
3800
7000
EF80
FFC0
60C0
ENDCHAR
STARTCHAR Zcaron
ENCODING 381
SWIDTH 501 0
DWIDTH 14 0
BBX 17 27 0 0
BITMAP
01C180
00E380
007F00
007C00
002000
000000
080F00
0FFF00
0FF780
078F00
001E00
003E00
003C00
007800
00F000
01E000
03C000
078000
0F0000
1E0000
3C0000
380000
700000
E1F000
FFF800
FFF800
F01800
ENDCHAR
STARTCHAR zcaron
ENCODING 382
SWIDTH 430 0
DWIDTH 12 0
BBX 15 21 0 0
BITMAP
0706
038E
039C
01F8
01E0
0100
0000
1C30
1FF8
0778
00F0
01E0
03C0
0780
0E00
1C00
3800
7000
EF80
FFC0
60C0
ENDCHAR
STARTCHAR florin
ENCODING 402
SWIDTH 466 0
DWIDTH 13 0
BBX 21 30 -5 -8
BITMAP
0000F0
0001F8
000388
000718
000618
000E38
000E78
001C70
001C00
001C00
003F00
007F80
01FF80
01F000
007000
007000
007000
00E000
00E000
00E000
00E000
01C000
01C000
01C000
038000
438000
C70000
E70000
FE0000
7C0000
ENDCHAR
STARTCHAR AEacute
ENCODING 508
SWIDTH 878 0
DWIDTH 25 0
BBX 29 27 -2 0
BITMAP
00000300
00000380
00000700
00000E00
00001C00
00000000
0000F7E0
0003FFF0
00073C18
000E7838
001CF038
0018E0F0
0030E1F0
0070E1E0
00E0E080
00C0E000
01FFFE00
03FFFE00
0FFFF800
0701E000
0603C000
0E038000
1C038100
1C078380
38038700
7003FE00
E000F800
ENDCHAR
STARTCHAR aeacute
ENCODING 509
SWIDTH 770 0
DWIDTH 22 0
BBX 20 22 1 0
BITMAP
000600
000700
000E00
000E00
001C00
003800
002000
000000
03DFE0
0FFFF0
1C3C70
383870
3878F0
7070F0
7071E0
E0FFC0
E0FE00
E1F000
E37040
E270E0
7E7FC0
381F00
ENDCHAR
STARTCHAR Scommaaccent
ENCODING 536
SWIDTH 474 0
DWIDTH 13 0
BBX 14 29 1 -8
BITMAP
01F0
07F8
0E0C
1C0C
1C0C
381C
381C
383C
3C78
3C70
1E00
1E00
0F00
0780
0780
4380
C380
C180
E300
FF00
7C00
0000
1000
7800
3800
3800
3000
7000
4000
ENDCHAR
STARTCHAR scommaaccent
ENCODING 537
SWIDTH 423 0
DWIDTH 12 0
BBX 12 22 0 -8
BITMAP
07C0
0FE0
1C70
1C70
1C60
1C00
1E00
0F00
0780
0780
6380
E380
7F00
3C00
0000
1000
3800
3800
3800
3000
7000
4000
ENDCHAR
STARTCHAR dotlessj
ENCODING 567
SWIDTH 277 0
DWIDTH 8 0
BBX 12 22 -5 -8
BITMAP
00F0
00F0
00F0
00F0
00E0
00E0
00E0
00E0
01C0
01C0
01C0
0380
0380
0380
0700
0700
0E00
0C00
1C00
3800
7000
E000
ENDCHAR
STARTCHAR circumflex
ENCODING 710
SWIDTH 354 0
DWIDTH 10 0
BBX 10 6 0 15
BITMAP
0100
0780
0F80
1F80
7980
E1C0
ENDCHAR
STARTCHAR caron
ENCODING 711
SWIDTH 381 0
DWIDTH 11 0
BBX 10 6 1 15
BITMAP
E080
61C0
7780
7E00
3800
2000
ENDCHAR
STARTCHAR breve
ENCODING 728
SWIDTH 344 0
DWIDTH 10 0
BBX 9 5 1 16
BITMAP
6080
E180
E300
7E00
3C00
ENDCHAR
STARTCHAR dotaccent
ENCODING 729
SWIDTH 217 0
DWIDTH 6 0
BBX 4 4 2 17
BITMAP
70
F0
F0
60
ENDCHAR
STARTCHAR ring
ENCODING 730
SWIDTH 402 0
DWIDTH 11 0
BBX 7 7 4 15
BITMAP
3C
7E
E6
C6
CE
FC
78
ENDCHAR
STARTCHAR ogonek
ENCODING 731
SWIDTH 311 0
DWIDTH 9 0
BBX 7 9 1 -7
BITMAP
02
0C
18
30
60
60
E8
F8
70
ENDCHAR
STARTCHAR tilde
ENCODING 732
SWIDTH 397 0
DWIDTH 11 0
BBX 10 5 2 16
BITMAP
3840
7C40
FEC0
CF80
8700
ENDCHAR
STARTCHAR hungarumlaut
ENCODING 733
SWIDTH 392 0
DWIDTH 11 0
BBX 10 7 1 15
BITMAP
0840
18C0
18C0
39C0
7380
6700
C600
ENDCHAR
STARTCHAR pi
ENCODING 960
SWIDTH 640 0
DWIDTH 18 0
BBX 18 14 0 0
BITMAP
0FFFC0
3FFFC0
233F00
030E00
071C00
061C00
0E1800
0C3800
1C3800
1C3800
383800
783A00
F03E00
E01C00
ENDCHAR
STARTCHAR uni1E02
ENCODING 7682
SWIDTH 551 0
DWIDTH 15 0
BBX 16 27 1 0
BITMAP
0020
0078
0078
0078
0020
0000
07F8
3FFE
7C0E
3607
0707
0F07
1E0E
1C0E
3C1C
3878
3FF0
7FE0
7870
7030
6038
E038
E070
E0F0
E1E0
7FC0
3E00
ENDCHAR
STARTCHAR uni1E03
ENCODING 7683
SWIDTH 525 0
DWIDTH 15 0
BBX 15 23 1 0
BITMAP
0600
0700
0E1C
0E3E
0E3C
0E1C
1C00
1C00
1C00
19E0
3BF0
3E70
3C78
7878
7078
7070
E070
E0F0
E0E0
E1E0
E3C0
7F00
3C00
ENDCHAR
STARTCHAR uni1E0A
ENCODING 7690
SWIDTH 630 0
DWIDTH 18 0
BBX 17 27 1 0
BITMAP
001000
003C00
007C00
003800
001000
000000
0FF000
3FFC00
3C0F00
100700
078380
070380
0F0380
0E0380
1E0380
1C0380
3C0780
380700
380F00
780E00
701C00
703C00
707800
E0F000
E3C000
7F8000
3E0000
ENDCHAR
STARTCHAR uni1E0B
ENCODING 7691
SWIDTH 557 0
DWIDTH 16 0
BBX 17 23 1 0
BITMAP
000180
000380
070380
0F0700
0F0700
060E00
000E00
000E00
001C00
03DC00
07FC00
0E3800
1C3800
383800
707800
707000
F07000
E0F000
E0E000
E1E000
E36400
7E7C00
3C3800
ENDCHAR
STARTCHAR uni1E1E
ENCODING 7710
SWIDTH 518 0
DWIDTH 15 0
BBX 16 27 1 0
BITMAP
0010
003C
003C
003C
0010
0000
1FE1
7FFF
7FFE
70C0
61C0
0180
0380
0380
0780
07F0
07F8
3FF8
1E00
0E00
1E00
1C00
3C00
3800
7000
E000
C000
ENDCHAR
STARTCHAR uni1E1F
ENCODING 7711
SWIDTH 393 0
DWIDTH 11 0
BBX 16 31 -1 -4
BITMAP
0038
0078
0078
0030
0000
003E
0077
00E7
00E7
01CF
01CE
0180
0380
0380
03F0
07F8
1FF8
3F00
0600
0E00
0E00
0E00
1C00
1C00
1C00
3800
3800
3800
7000
7000
E000
ENDCHAR
STARTCHAR uni1E40
ENCODING 7744
SWIDTH 931 0
DWIDTH 26 0
BBX 29 27 -3 0
BITMAP
00000100
00000380
000007C0
00000380
00000100
00000000
0001E038
0003E0F8
0006E1F8
000DC1B0
0019C370
003B8770
00338660
00638CE0
00E78CE0
00C719E0
01C739C0
018731C0
038771C0
030E6380
070EE380
060EC380
0E0FC380
1C0F8380
380F0390
780F03F0
E00601E0
ENDCHAR
STARTCHAR uni1E41
ENCODING 7745
SWIDTH 814 0
DWIDTH 23 0
BBX 22 21 0 0
BITMAP
000700
000F00
000F00
000600
000000
000000
000000
1C3838
1E7C7C
0EFCFC
0ECD9C
1D8F38
1F1E38
1E1C70
3C3C70
3838E0
7870E0
7070E0
F0E0E8
E0E0F8
E0C070
ENDCHAR
STARTCHAR uni1E56
ENCODING 7766
SWIDTH 553 0
DWIDTH 16 0
BBX 18 27 -1 0
BITMAP
000200
000780
000F00
000700
000200
000000
00FE00
07FF80
0F81C0
0E01C0
04C1C0
01C1C0
01C1C0
0383C0
038780
078F00
071E00
07FC00
0FE000
0E0000
1E0000
1C0000
1C0000
380000
700000
F00000
E00000
ENDCHAR
STARTCHAR uni1E57
ENCODING 7767
SWIDTH 550 0
DWIDTH 15 0
BBX 16 29 -2 -8
BITMAP
001C
003C
003C
0018
0000
0000
0000
071E
0F7F
07E7
07C7
0787
0707
0F07
0E07
0E0E
0E1E
1C1C
1E38
1FF0
1BC0
3800
3800
3000
7000
7000
E000
E000
C000
ENDCHAR
STARTCHAR uni1E60
ENCODING 7776
SWIDTH 474 0
DWIDTH 13 0
BBX 14 27 1 0
BITMAP
0020
0078
0078
0070
0020
0000
01F0
07F8
0E0C
1C0C
1C0C
381C
381C
383C
3C78
3C70
1E00
1E00
0F00
0780
0780
4380
C380
C180
E300
FF00
7C00
ENDCHAR
STARTCHAR uni1E61
ENCODING 7777
SWIDTH 423 0
DWIDTH 12 0
BBX 12 21 0 0
BITMAP
00E0
00F0
00F0
00E0
0000
0000
0000
07C0
0FE0
1C70
1C70
1C60
1C00
1E00
0F00
0780
0780
6380
E380
7F00
3C00
ENDCHAR
STARTCHAR uni1E6A
ENCODING 7786
SWIDTH 430 0
DWIDTH 12 0
BBX 16 27 1 0
BITMAP
0020
0078
0078
0078
0020
0000
3FC1
7FFF
FFFE
E1C0
C1C0
01C0
0380
0380
0380
0700
0700
0700
0E00
0E00
0E00
1C00
1C00
3800
3800
7000
E000
ENDCHAR
STARTCHAR uni1E6B
ENCODING 7787
SWIDTH 358 0
DWIDTH 10 0
BBX 10 22 2 0
BITMAP
0380
0780
0780
0380
0600
0E00
0E00
1C00
7FC0
3C00
3800
3800
7000
7000
7000
6000
E000
E000
E200
F600
FC00
7800
ENDCHAR
STARTCHAR Wgrave
ENCODING 7808
SWIDTH 941 0
DWIDTH 26 0
BBX 26 27 2 0
BITMAP
00020000
00070000
00070000
00038000
0001C000
00000000
3E000380
7F0003C0
FF0003C0
670003C0
070003C0
0E0381C0
0E0F81C0
1C1F03C0
1C3E0380
387E0380
387C0380
70FC0700
71DC0700
73B80E00
E3380E00
E6381C00
EE383800
EC387000
F838E000
F01FC000
700F0000
ENDCHAR
STARTCHAR wgrave
ENCODING 7809
SWIDTH 750 0
DWIDTH 21 0
BBX 20 22 1 0
BITMAP
003800
007800
007800
003800
003800
001800
000800
000000
3C00E0
3C18E0
1C38F0
1C7870
387060
38F060
38E0E0
71E0C0
73E0C0
66C180
ECC380
F8E700
F0FC00
E07800
ENDCHAR
STARTCHAR Wacute
ENCODING 7810
SWIDTH 941 0
DWIDTH 26 0
BBX 26 27 2 0
BITMAP
00003000
00007000
00007000
0000E000
0001C000
00000000
3E000380
7F0003C0
FF0003C0
670003C0
070003C0
0F0381C0
0E0781C0
1E1F03C0
1C3E0380
3C3E0380
387C0380
78FC0700
71DC0700
73B80E00
E3380E00
E6381C00
EE383800
EC383000
F838E000
F01FC000
700F0000
ENDCHAR
STARTCHAR wacute
ENCODING 7811
SWIDTH 750 0
DWIDTH 21 0
BBX 20 22 1 0
BITMAP
000600
000E00
000E00
001C00
001C00
003000
004000
000000
3C00E0
3C18E0
1C38F0
1C7870
387060
38F060
38E0E0
71E0C0
73E0C0
66C180
ECC380
F8E700
F0FC00
E07800
ENDCHAR
STARTCHAR Wdieresis
ENCODING 7812
SWIDTH 941 0
DWIDTH 26 0
BBX 26 27 2 0
BITMAP
00041000
001E3C00
001E7C00
001E3800
00041000
00000000
3E000380
7F0003C0
FF0003C0
670003C0
070003C0
0E0381C0
0E0F81C0
1C1F03C0
1C3E0380
387E0380
387C0380
70FC0700
71DC0700
73B80E00
E3380E00
E6381C00
EE383800
EC387000
F838E000
F01FC000
700F0000
ENDCHAR
STARTCHAR wdieresis
ENCODING 7813
SWIDTH 750 0
DWIDTH 21 0
BBX 20 21 1 0
BITMAP
00E380
01E7C0
01E780
00C380
000000
000000
000000
3C00E0
3C18E0
1C38F0
1C7870
387060
38F060
38E0E0
71E0C0
73E0C0
66C180
ECC380
F8E700
F0FC00
E07800
ENDCHAR
STARTCHAR Ygrave
ENCODING 7922
SWIDTH 580 0
DWIDTH 16 0
BBX 19 35 0 -8
BITMAP
001000
003800
003800
003C00
001E00
000200
078060
0780E0
0380E0
0381C0
0781C0
0703C0
070380
0E0780
0E0700
1E0F00
1C1F00
3C1E00
383E00
383E00
706C00
70DC00
70DC00
F1B800
733800
7E7000
387000
00E000
00E000
01C000
038000
070000
0E0000
3C0000
780000
ENDCHAR
STARTCHAR ygrave
ENCODING 7923
SWIDTH 549 0
DWIDTH 15 0
BBX 14 30 1 -8
BITMAP
00C0
01C0
01C0
01C0
00C0
00E0
0020
0000
1C0C
3C1C
1C1C
1C3C
3C38
3878
38F8
70F0
71F0
E360
E6E0
ECE0
F8C0
71C0
0180
0380
0300
0700
0E00
1C00
7800
6000
ENDCHAR
STARTCHAR endash
ENCODING 8211
SWIDTH 751 0
DWIDTH 21 0
BBX 17 2 2 7
BITMAP
7FFF80
FFFF00
ENDCHAR
STARTCHAR emdash
ENCODING 8212
SWIDTH 1066 0
DWIDTH 30 0
BBX 25 2 3 7
BITMAP
FFFFFF80
FFFFFF00
ENDCHAR
STARTCHAR quoteleft
ENCODING 8216
SWIDTH 268 0
DWIDTH 8 0
BBX 5 7 4 16
BITMAP
18
70
60
E0
E0
F0
E0
ENDCHAR
STARTCHAR quoteright
ENCODING 8217
SWIDTH 268 0
DWIDTH 8 0
BBX 5 7 4 16
BITMAP
30
78
38
38
30
60
C0
ENDCHAR
STARTCHAR quotesinglbase
ENCODING 8218
SWIDTH 268 0
DWIDTH 8 0
BBX 5 7 0 -3
BITMAP
30
78
38
38
30
60
C0
ENDCHAR
STARTCHAR quotedblleft
ENCODING 8220
SWIDTH 485 0
DWIDTH 14 0
BBX 11 7 4 16
BITMAP
1860
31C0
6380
E300
E380
F780
E300
ENDCHAR
STARTCHAR quotedblright
ENCODING 8221
SWIDTH 480 0
DWIDTH 13 0
BBX 11 7 4 16
BITMAP
38C0
39E0
38E0
38C0
31C0
7180
C300
ENDCHAR
STARTCHAR quotedblbase
ENCODING 8222
SWIDTH 463 0
DWIDTH 13 0
BBX 10 7 0 -3
BITMAP
31C0
79C0
39C0
38C0
31C0
6180
C300
ENDCHAR
STARTCHAR dagger
ENCODING 8224
SWIDTH 488 0
DWIDTH 14 0
BBX 12 21 2 0
BITMAP
0380
0380
0380
0380
0780
7FF0
3FE0
0700
0F00
0E00
0E00
1C00
1C00
1C00
1800
3800
3000
3000
6000
6000
C000
ENDCHAR
STARTCHAR daggerdbl
ENCODING 8225
SWIDTH 488 0
DWIDTH 14 0
BBX 12 21 2 0
BITMAP
0380
0380
0380
0380
0780
7FF0
3FE0
0700
0F00
0E00
0E00
1E00
FFC0
7F80
1800
3800
3000
3000
6000
6000
C000
ENDCHAR
STARTCHAR bullet
ENCODING 8226
SWIDTH 437 0
DWIDTH 12 0
BBX 7 7 3 6
BITMAP
3C
7E
FE
FE
FC
7C
30
ENDCHAR
STARTCHAR ellipsis
ENCODING 8230
SWIDTH 810 0
DWIDTH 23 0
BBX 19 4 1 0
BITMAP
F0E1E0
F1F1E0
F1F1E0
E0E1C0
ENDCHAR
STARTCHAR perthousand
ENCODING 8240
SWIDTH 1184 0
DWIDTH 33 0
BBX 29 21 2 0
BITMAP
0F018000
3F838000
73870000
73860000
E38E0000
E39C0000
E7180000
E7380000
7E700000
10600000
00E00000
01C00000
0187C1F0
038EC3B8
071CE738
0638E738
0E38EE38
1C39CE38
1839CE70
383F87E0
301F03C0
ENDCHAR
STARTCHAR guilsinglleft
ENCODING 8249
SWIDTH 413 0
DWIDTH 12 0
BBX 8 11 2 3
BITMAP
01
07
0E
3C
F0
E0
F0
78
3C
1C
0E
ENDCHAR
STARTCHAR guilsinglright
ENCODING 8250
SWIDTH 416 0
DWIDTH 12 0
BBX 8 11 2 3
BITMAP
70
78
3C
1C
0E
07
0E
3C
70
E0
80
ENDCHAR
STARTCHAR fraction
ENCODING 8260
SWIDTH 580 0
DWIDTH 16 0
BBX 15 23 1 0
BITMAP
0002
000E
001C
0018
0038
0030
0070
00E0
00C0
01C0
0180
0380
0700
0700
0E00
0C00
1C00
1800
3800
7000
6000
E000
C000
ENDCHAR
STARTCHAR Euro
ENCODING 8364
SWIDTH 622 0
DWIDTH 17 0
BBX 17 21 2 0
BITMAP
001E00
007F00
01E300
03C380
078380
070700
0E0F00
0E0E00
1C0000
7FE000
3E0000
380000
380000
FFC000
7C0000
380000
380000
381000
3C3800
1FF000
07C000
ENDCHAR
STARTCHAR trademark
ENCODING 8482
SWIDTH 1084 0
DWIDTH 30 0
BBX 22 11 5 10
BITMAP
FFE70C
FFCF3C
1C1F3C
181E6C
18365C
3836DC
306698
306798
70C718
31C718
39861C
ENDCHAR
STARTCHAR Omega
ENCODING 8486
SWIDTH 839 0
DWIDTH 24 0
BBX 21 21 1 0
BITMAP
00FC00
07FF00
0F03C0
1C01C0
3C00E0
3800F0
780070
780070
700078
700078
700078
780070
780070
3800F0
3C00E0
1C01E0
0E01C0
060380
E30718
FF87F8
7F8FF8
ENDCHAR
STARTCHAR partialdiff
ENCODING 8706
SWIDTH 580 0
DWIDTH 16 0
BBX 15 22 1 0
BITMAP
01F8
03CC
038E
030E
0306
0006
008E
07FE
1F3E
3C1E
3C1C
781C
703C
F038
E038
E078
E0F0
E0E0
E1E0
E3C0
7F80
3E00
ENDCHAR
STARTCHAR Delta
ENCODING 8710
SWIDTH 663 0
DWIDTH 19 0
BBX 18 17 0 0
BITMAP
002000
00E000
00F000
01F000
01B800
033800
031C00
061C00
0E0E00
0C0E00
180700
180700
300700
300380
600380
6001C0
FFFF80
ENDCHAR
STARTCHAR product
ENCODING 8719
SWIDTH 667 0
DWIDTH 19 0
BBX 15 23 2 -2
BITMAP
3FFE
E00E
E00E
E00E
E00E
E00E
E00E
E00E
E00E
E00E
E00E
E00E
E00E
E00E
E00E
E00E
E00E
E00E
E00E
E00E
E00E
E00E
E00C
ENDCHAR
STARTCHAR summation
ENCODING 8721
SWIDTH 677 0
DWIDTH 19 0
BBX 16 24 1 -3
BITMAP
1FFF
3FFF
7C00
3C00
1E00
1F00
0F00
0780
07C0
03C0
01E0
00E0
00C0
01C0
0380
0700
0E00
1C00
3800
3800
7000
FFFF
FFFE
7FF8
ENDCHAR
STARTCHAR minus
ENCODING 8722
SWIDTH 617 0
DWIDTH 17 0
BBX 14 2 2 9
BITMAP
FFFC
FFF8
ENDCHAR
STARTCHAR radical
ENCODING 8730
SWIDTH 709 0
DWIDTH 20 0
BBX 21 26 1 0
BITMAP
000018
000018
000038
000038
000070
000070
0000E0
0000E0
0001C0
000380
000380
000700
180700
3C0E00
7C0E00
FC1C00
8E1800
0E3800
0E3000
0E7000
066000
07C000
07C000
078000
078000
030000
ENDCHAR
STARTCHAR infinity
ENCODING 8734
SWIDTH 681 0
DWIDTH 19 0
BBX 17 8 1 6
BITMAP
3E3F00
7F7F80
71F180
61E180
E3C180
67E380
7F3F00
3E1E00
ENDCHAR
STARTCHAR integral
ENCODING 8747
SWIDTH 583 0
DWIDTH 16 0
BBX 22 31 -2 -5
BITMAP
0000F0
0001F8
000388
00038C
00071C
000F38
000E38
000E10
001C00
001C00
001C00
003800
003800
003800
007000
007000
007000
00F000
00E000
00E000
00E000
01C000
01C000
01C000
638000
F38000
E70000
C70000
CE0000
DC0000
780000
ENDCHAR
STARTCHAR approxequal
ENCODING 8776
SWIDTH 671 0
DWIDTH 19 0
BBX 16 13 2 3
BITMAP
0600
1F83
3FC6
63EE
41FC
C0F8
0000
1E06
7F06
EF8C
C3F8
81F0
0040
ENDCHAR
STARTCHAR notequal
ENCODING 8800
SWIDTH 617 0
DWIDTH 17 0
BBX 14 18 2 1
BITMAP
0018
0038
0070
0060
00E0
7FFC
FFFC
0380
0300
0700
7FF8
FFFC
1C00
1800
3000
7000
6000
C000
ENDCHAR
STARTCHAR lessequal
ENCODING 8804
SWIDTH 704 0
DWIDTH 20 0
BBX 15 18 1 0
BITMAP
000E
003C
00F0
03C0
0780
1E00
7800
F800
3E00
0F80
03C0
00F0
003C
000E
0000
0000
7FFE
7FFC
ENDCHAR
STARTCHAR greaterequal
ENCODING 8805
SWIDTH 617 0
DWIDTH 17 0
BBX 14 19 2 0
BITMAP
8000
E000
7800
1E00
0F80
03E0
00F0
003C
0078
01E0
0780
1E00
3C00
F000
C000
0000
0000
FFF8
FFF8
ENDCHAR
STARTCHAR lozenge
ENCODING 9674
SWIDTH 580 0
DWIDTH 16 0
BBX 14 21 1 0
BITMAP
0300
0780
0780
0FC0
0CC0
18E0
3870
3030
7038
6018
E01C
601C
7018
3030
3870
1C60
0CE0
0FC0
0780
0780
0300
ENDCHAR
STARTCHAR commaaccent
ENCODING 63171
SWIDTH 250 0
DWIDTH 7 0
BBX 5 6 1 -7
BITMAP
30
78
38
30
60
C0
ENDCHAR
STARTCHAR ff
ENCODING 64256
SWIDTH 773 0
DWIDTH 22 0
BBX 27 27 -1 -4
BITMAP
00080100
003E0FC0
00771CE0
00E71CE0
00E738E0
01CF39C0
01CE39C0
01C07000
03807000
03807000
03806000
07FFFE00
1FFFFE00
3F00C000
0601C000
0E01C000
0E01C000
0E038000
1C038000
1C038000
1C070000
38070000
38070000
380E0000
700E0000
701C0000
E01C0000
ENDCHAR
STARTCHAR fi
ENCODING 64257
SWIDTH 623 0
DWIDTH 17 0
BBX 19 27 -1 -4
BITMAP
000F80
001FC0
0038E0
0070E0
00E0E0
00C0E0
01C1E0
01C0C0
038000
03BF80
07FFC0
1FC380
3F0380
070380
0E0300
0E0700
0E0700
1C0E00
1C0E00
1C0C00
181C00
380F80
380F00
700000
700000
E00000
400000
ENDCHAR
STARTCHAR fl
ENCODING 64258
SWIDTH 637 0
DWIDTH 18 0
BBX 20 27 -1 -4
BITMAP
000FC0
003FE0
007860
007070
00E060
01C0E0
01C0E0
01C0E0
0380C0
0381C0
03F1C0
0FF980
3FFB80
170380
0E0700
0E0700
0E0700
0E0E00
1C0E00
1C0E00
1C0E80
380F80
380700
700000
700000
E00000
400000
ENDCHAR
STARTCHAR .notdef
ENCODING -1
SWIDTH 896 0
DWIDTH 25 0
BBX 26 24 2 0
BITMAP
03FFFF80
03FFFFC0
07FFFF80
07FFFF80
07FFFF80
0FCF8F00
0F8F1F00
0F8C3F00
0F8C7E00
1F89FE00
1F8BFE00
1F87FE00
3FC7FC00
3FC7FC00
3F87FC00
3F23F800
7E23F800
7C707800
78F8F000
FFFFF000
FFFFF000
FFFFE000
FFFFE000
FFFFC000
ENDCHAR
ENDFONT
